<svg id="Capa_1" data-name="Capa 1" xmlns="http://www.w3.org/2000/svg" viewBox="0 0 214.777 217.896"><path d="M201.655,12.571c-6.988-.363-8.207-9.6-15.042-10.038-3.592-.223-10.392-.538-16.3,1.612-6.587-4.5-15.042-10.02-2.686,11.472-2.685,14.5-11.641,55.158-21.136,55.328s-15.755-17.183-23.817-17l-8.062.172c-9.49,0-15.735-16.786-34.921-17.363-12-.36-21.492,20.763-48.179,23.09-7.16.539-18.181,3.328-19.3,19.84,0,0-15.735,14.712-8.327,48.7,1.849-16.919,2.771-31.106,8.327-40.365-.414,9.238,2.469,18.2,0,27.773S1.9,141.7,1.9,141.7s-1.719,3.4,2.6,15.122,12.958,40.759,12.958,40.759c.441,5.1,1.158,7.783,4.739,10.115-.9,3.391-3.919,10.2,6.825,10.2,4.6,0,0,0,10.418,0,7.279,0,4.91-6.256-6.846-12,.358-4.295-2.326-8.777-4.119-9.675-4.294-10.924-9.847-31.851-9.847-31.851S16.652,146.1,23.46,140s15.029-11.8,20.584-32.042c.175-1.438,9.491,7.167,28.12,12.534s32.911-.363,34.992.536,6.558,11.817,6.558,22.393-3.76,17.547-3.76,21.666S113,176.369,113,176.369s1.789,19.7-.537,30.806c-1.613,6.977-4.3,10.522,6.449,10.538s25.43,2.344,6.271-10.363c1.607-3.942.355-9.324-1.438-11.282-.36-9.673.723-19.172,2.5-23.1s.543-15.22.9-20.947,5.552-26.323,11.282-33.662,31.161-29.012,35.463-50.142,8.955-42.637,21.493-42.448c7.518,0,8.771,4.295,12,4.119s8.956-5.536,8.956-8.4S215.625,12.747,201.655,12.571Z" transform="translate(-1.56 0.001)"/></svg>