<svg xmlns="http://www.w3.org/2000/svg" viewBox="0 0 300.2533 619.634"><defs><style>.cls-1{isolation:isolate;}.cls-2{fill:#fff;stroke:#231f20;stroke-miterlimit:10;opacity:0.4;mix-blend-mode:overlay;}</style></defs><g class="cls-1"><g id="Layer_1" data-name="Layer 1"><path class="cls-2" d="M550.8226,14.487c-2.5772,3.8359-4.0161,5.9336-6.5933,10.249-1.3829,2.3152-3.2931,4.832-3.8606,4.6167-.3847-.1457.5341-4.727,1.2835-7.4936,2.3375-8.6307,3.4245-15.0845,4.5987-19.1736,1.275-4.4414-3.7-7.7376-5.7377.354A166.1546,166.1546,0,0,1,534.76,21.5c-2.0376,4.9744-3.077,4.1751-3.8361,2.9366-.2857-.4664-.6243-2.3677-.7993-5.5542-.5719-10.4253-.6434-15.7644-.8189-20.3982-.2774-7.3167-6.1732-6.1136-6.1732.24,0,9.0093-.1671,17.3745-.4195,22.1763-.18,3.4165-1.19,3.2641-2.2425,2.8843-.57-.2061-.9178-1.8146-1.7328-4.9605C516.1786,8.9448,515.2421,4.7931,513.9592.58c-1.4026-4.6065-6.9044-4.34-5.4342,2.5017,2.0979,9.7614,3.8537,17.6567,4.5437,23.469.1606,1.3541.3332,2.6061.4826,3.763q.0926.7191.17,1.3866c.0073.0633.0139.1252.0209.1878.0518.4657.0965.9144.1294,1.3414.0019.0254.0031.0493.0049.0746.0326.4394.0542.86.0593,1.2575l0,.0152c.0046.3833-.0092.7426-.0366,1.087-.0035.0442-.0059.09-.01.1332a7.0824,7.0824,0,0,1-.1463.9221c-.0107.0467-.0223.0924-.034.1381a4.6092,4.6092,0,0,1-.2793.8019c-.0141.03-.0313.0585-.0461.0884a3.543,3.543,0,0,1-.4528.7089c-.012.0142-.0205.0293-.0324.0436-.0289.0347-.0527.07-.0811.1053-.0621.01-.1227.0115-.1849.0225a5.55,5.55,0,0,1-5.1216-2.0022c-2.56-3.4061-8.573-7.0339-11.6339-4.5937-2.45,1.9531,1.459,4.03,4.4541,5.7561,2.7409,1.5786,7.2832,7.9192,8.9445,11.5637a33.1521,33.1521,0,0,0,5.1957,7.5888l.0019.003c.021.0234.0433.0459.0644.0693q.2962.3269.6024.6472c.0782.0818.1571.1623.2362.2433q.2346.24.4742.4742c.0987.0966.1971.1929.297.288.1455.1382.293.273.441.4076.1094.0995.2175.2006.3282.2979q.3192.28.6454.5463c.17.1392.3423.2717.5148.4047.0975.075.1943.1512.2925.224.168.1247.3372.2437.5072.3617q.1264.0877.2536.1729.2748.1839.5519.3553c.0569.0349.1141.0676.1711.1016l.016.0094c-.0161.4585-.0291.9223-.0765,1.3907q-.1.9332-.2037,1.9009-.2187,1.9371-.4526,4.01c-.0907.6882-.1393,1.3962-.2708,2.0981q-.195,1.0528-.3958,2.1365-.4076,2.1618-.8372,4.44a104.2189,104.2189,0,0,1-6.1029,18.84A100.8532,100.8532,0,0,1,500.8961,115.01a102.8956,102.8956,0,0,1-14.6492,16.1057,140.1107,140.1107,0,0,1-32.6964,21.3985c-2.4765,1.2485-4.9011,2.2766-7.0858,3.2907-2.2378.9414-4.2578,1.84-6.1092,2.58-3.7336,1.497-6.5524,2.6274-8.2416,3.3049a19.9368,19.9368,0,0,0-3.6027,1.918,20.1365,20.1365,0,0,0-5.1967-3.1365c-1.8648-.7953-3.4554-1.375-4.8559-1.849l-.0689-.119a1.9718,1.9718,0,0,0-1.2269-.3113l.0013.0019c-4.4511-1.4357-6.6905-1.8911-9.2411-5.4619-1.9574-2.74-3.2243-6.64-4.0979-10.7053a44.0589,44.0589,0,0,0,15.907.6284c4.0208-.7271,9.473-4.4088,13.8346-10.1047a71.6206,71.6206,0,0,0,23.8188-13.5647c-.5154-.83-4.3636-6.1953-4.8153-7.3218a21.6062,21.6062,0,0,0,5.277,5.2771,21.6154,21.6154,0,0,0,4.5514-5.2771,14.3743,14.3743,0,0,1-2.5473-3.1108,9.0844,9.0844,0,0,0,3.0968,2.3192c1.7357-1.8932,3.0778-4.6137,4.8548-7.193-5.9366-5.34-9.4545-10.4407-14.2038-18.2683,4.925,4.8374,11.9608,9.6052,17.59,10.8274-9.9381-7.7491-19.4367-18.9185-21.46-28.2415-1.8463-8.5083.5489-20.1652-9.9153-29.0232-4.0072-11.8962-12.44-14.5926-14.095-14.9077-1.5832-2.6387-8.4432-12.9287-34.0367-13.1926S347.7513,26.704,341.287,37.258c-4.5951,7.502-5.7585,19.45-5.43,28.4-1.22,2.7692-2.2676,5.3385-3.1451,7.4835-3.562,8.7071-14.5777,19.0633-22.7571,26.9126,4.7493-1.9787,11.2137-8.6411,18.8653-17.2819-6.3324,10.3559-18.3376,21.24-24.2082,25.8571,5.7387-2.1108,15.3692-9.6965,24.2741-20.1186-3.496,7.124-17.15,22.4931-19.7887,24.4062,1.6491,3.562,17.2822,16.1607,20.58,17.81a89.0456,89.0456,0,0,1,8.3772-11.5434,44.9092,44.9092,0,0,0-2.7045,13.918c5.3017,2.93,11.6391,4.1268,17.1907,4.5362.1163,1.35.26,2.6044.4433,3.7091,7.1051,1.8223,11.6093.44,11.6093.44,2.4625,1.0554,10.07,4.5735,15.6112,1.5393a73.7152,73.7152,0,0,1-12.7428-20.9819c3.728,4.7069,9.3729,8.9388,15.8026,12.3357a87.3458,87.3458,0,0,1-.624,11.5344c-.1515,1.11-.3313,2.1387-.5436,3.0676-1.0665,4.6657-4.4918,7.6792-8.6693,10.1754a2.2,2.2,0,0,0-.84.49c-5.608,3.1942-12.333,5.6239-16.5557,9.8467a15.7963,15.7963,0,0,0-1.265,1.433,18.7213,18.7213,0,0,0-3.3317,3.9874c-.5515.884-1.7937,3.219-3.6011,6.6951-1.8212,3.47-4.162,8.1-6.8937,13.58-5.4818,10.9536-12.4987,25.32-19.9737,40.6946-14.9823,30.7327-31.9259,65.4736-43.7017,84.4021a10.0117,10.0117,0,0,0-1.3411,3.18c-3.38.7007-8.5,3.795-13.453,13.5958-.9913,1.9612-2.57,5.1295-3.9689,7.8435a5.0143,5.0143,0,0,0-.2468,4.382,8.9947,8.9947,0,0,0,.0915,5.5708c.8749,3.2979.745,6.5384,2.3033,8.8a17.8171,17.8171,0,0,0,.7051,2.2644c.36,2.6861.8353,3.5089,3.4255,11.1339s3.6874,11.1525,5.4975,10.641c1.9594-.5536,2.466-4.3405,1.6872-7.33a19.9417,19.9417,0,0,0-.8-2.4638c4.0889,1.8163,6.45,3.8875,6.7639,2.0907.2789-1.5986-.2555-3.209-4.0276-5.66a17.0246,17.0246,0,0,1-3.7907-2.747,4.95,4.95,0,0,1-.293-.4766,5.824,5.824,0,0,0,1.1834.0248c4.9507-.3938,12.0031,1.1029,11.8794-1.042s-1.9981-3.7174-4.5661-4.2347-6.8553-.8059-7.4172-1.0228a2.0112,2.0112,0,0,1-.59-.4443c.0575-.1464.1086-.2849.1713-.4376.68-1.395,1.3781-2.6842,2.0809-3.8725a28.49,28.49,0,0,1,6.079.4312c2.5675.6033,3.9731-1.3033,2.1611-3.4741-.7858-.9413-2.6151-1.6627-4.5957-2.2091a17.1362,17.1362,0,0,1,5.0293-4.4454c1.4448-.7136,3.6757,2.9079,3.9455,4.7839.5721,3.9845,3.9032,9.7222,7.5474,9.0924,2.9164-.5044.6235-4.0014-1.0732-6.7917-1.5519-2.5534-2.4319-9.8692-2.1518-13.643.2474-3.3316-1.53-10.6806-4.7384-15.6173a8.8462,8.8462,0,0,0,2.0357-2.6133c10.1089-19.1894,29.1648-50.3928,47.04-78.3059,8.7156-13.6151,17.1686-26.4113,24.0573-36.7388.52,1.3438,1.0643,2.7182,1.6549,4.15,1.8652,4.52,3.9737,9.0953,6.0164,13.7154a4.0258,4.0258,0,0,1-.5172-.15c0,.0027,4.1741,10.9313,5.4063,14.4114,1.496,4.2217,5.583,28.7571,2.9155,42.084-2.6279,13.1159-6.3746,22.6884-8.0026,28.5381l.0028,0a50.16,50.16,0,0,0-3.6069,14.7883,21.411,21.411,0,0,0-2.1342,5.7742c-.5508,2.7-1.0822,5.5387-1.6243,8.5395-.5768,2.9981-1.1516,6.1593-1.7315,9.5084-1.1123,6.6955-2.3485,14.1369-3.7438,22.5358-2.7014,16.7849-6.06,37.3424-10.7188,63.2205-6.6467,36.8114-11.8624,69.9567-21.4605,106.1131l2.0351.5232c-3.7218,15.06-7.8515,30.0387-12.5615,44.6557-.1308.4071-.2457.7929-.3607,1.1789a19.8443,19.8443,0,0,0-9.0866,1.12c-12.1959,4.2617-17.9991,12.8306-12.4679,14.8254s22.5782,2.9923,31.51,1.1335,5.8486-5.9787,3.99-8.2515c-.6651-.8132-1.46-1.74-2.3927-2.6829.3686-1.2129.7222-2.5947,1.0666-4.2066,2.9689-13.8448,6.7234-29.1194,10.9356-45.0392l2.0744.5334c4.9471-17.2284,9.0748-32.3888,13.5412-48.1375,2.2305-7.8755,4.504-15.9126,7.0366-24.4226,2.4558-8.5352,5.2255-17.5259,8.2058-27.3912,1.95-6.4521,3.833-12.4913,5.5177-18.2148l4.7722-16.1787c1.4809-5.0855,2.812-9.8954,4.0952-14.4518,1.2724-4.56,2.4876-8.8693,3.5489-13.015,2.811-10.6661,5.0986-20.0786,7.0222-29.1425a82.1638,82.1638,0,0,0,9.8071-.1524,29.0382,29.0382,0,0,0,4.79-.7519c-.2378,19.4962-.1532,44.708-.5712,79.3327-.45,37.6021.1967,71.2854-2.8585,108.7141l2.1033.1551c-.998,15.54-2.4049,31.0715-4.4391,46.3474-.087.6556-.1558,1.2747-.2145,1.8741-1.0465-.0212-1.834.1571-2.19.7844-1.1334,1.9949-2.0855,10.1556-1.5414,12.604s3.1736,2.5388,5.2591,2.2668,2.9709.272,5.77-4.2619a49.1348,49.1348,0,0,0,30.5911,8.161c16.639-1.0881,17.1377-2.8563,9.34-8.161s-26.2062-11.261-28.7442-11.697a18.5923,18.5923,0,0,0-5.6378.0168c.01-.2359.0233-.455.031-.7.4551-14.2074,1.4308-29.9534,2.76-46.4245l2.1476.1585c3.6017-35.7876,5.7673-62.74,11.1217-103.6725,6.9263-53.5653,10.0969-80.7859,10.8571-108.9794a24.828,24.828,0,0,0-.4666-5.1917,7.0012,7.0012,0,0,0,.0986-1.8415c-.2081-2.267-.6585-5.2538-1.2337-8.45l.0015-.0009c-.47-4.7045-3.3271-18.9682-4.2954-23.6728s-2.4195-20.0974-1.847-27.617,4.1767-20.8468,7.0369-27.3085a49.5572,49.5572,0,0,1,6.5065-11.3269c1.4485-1.9077,7.3112-10.57,2.9129-24.5962a38.4681,38.4681,0,0,0-2.9555-5.9761c-.7334-2.1752-1.5316-4.4868-2.33-7.0524-1.3151-4.223-2.4578-7.8578-3.5661-11.0065.5661-.1823,1.1429-.3861,1.737-.6266a200.2441,200.2441,0,0,0,19.0809-9.9547c4.9856-2.9572,10.6437-6.548,16.5033-10.8667a145.9738,145.9738,0,0,0,17.568-15.2052,123.6092,123.6092,0,0,0,15.5162-19.2742,120.7165,120.7165,0,0,0,11.088-21.6555,148.491,148.491,0,0,0,6.17-21.2415q.4463-2.5168.87-4.9072c.277-1.593.6126-3.1323.7641-4.6465q.3006-2.2574.582-4.3711c.1474-1.027.28-2.0153.385-2.9857a7.2146,7.2146,0,0,0,1.3247-.6188c3.081-1.8742,11.2492-12.4055,14.7855-23.9731.761-2.49,2.4576-4.5554,5.1544-9.05,4.6618-7.77,6.1487-10.8975,7.2523-12.7664C559.5729,10.0519,554.15,9.5351,550.8226,14.487Z" transform="translate(-257.3552 7.0365)"/></g></g></svg>