<svg xmlns="http://www.w3.org/2000/svg" viewBox="0 0 357.6185 632.8554"><defs><style>.cls-1{isolation:isolate;}.cls-2{fill:#fff;stroke:#231f20;stroke-miterlimit:10;opacity:0.4;mix-blend-mode:overlay;}</style></defs><g class="cls-1"><g id="Layer_1" data-name="Layer 1"><path class="cls-2" d="M565.3039,115.2593a16.6967,16.6967,0,0,0-.7427-2.3,35.2454,35.2454,0,0,0-2.1072-4.3579A73.7463,73.7463,0,0,0,557.05,100.48,166.1613,166.1613,0,0,0,544.4,85.8763c-4.1669-4.3177-8.3723-8.393-12.5946-12.2962C515.22,58.262,498.9241,45.7758,487.0023,36.3855c.9552-5.8184-.212-13.1115-1.7007-16.0692-1.7308-3.4382-3.7477-10.6572-3.2816-13.66.51-3.2826,1.3057-7.4612-1.6318-6.8013-3.67.8248-4.5707,7.5131-3.5593,11.4808.4757,1.8682-.2134,6.14-1.8487,6.0307a17.4269,17.4269,0,0,1-6.4559-2.2231c1.6493-1.2836,3.0884-2.6729,3.4609-3.8631.8593-2.7453-1.2032-3.991-3.3821-2.4256a28.9823,28.9823,0,0,1-5.5463,2.7687q-1.6841-1.2657-3.4616-2.8312c-.1183-.119-.22-.2294-.331-.3446a2.05,2.05,0,0,1,.3822-.6471c.4437-.4226,4.3615-2.3607,6.5742-3.8452s3.3633-3.6914,2.6457-5.7557-6.765,2.0847-11.5715,3.639a5.9143,5.9143,0,0,0-1.103.4837,5.0985,5.0985,0,0,1,.09-.562,17.3269,17.3269,0,0,1,2.4952-4.0558c2.593-3.77,2.4693-5.4916,1.5855-6.8859-.9933-1.5671-2.4078,1.298-5.545,4.5949a20.273,20.273,0,0,0-.2054-2.6271c-.43-3.1132-2.3788-6.4758-4.4358-6.2344-1.9.2232-1.56,3.9654-1.03,12.14s.4028,9.1323,1.1091,11.7992a18.03,18.03,0,0,0,.2171,2.4008c-.5853,2.7315.7966,5.727,1.2565,9.1671a9.1452,9.1452,0,0,0,2.08,5.272,5.1008,5.1008,0,0,0,1.9354,4.0232c2.3707,2.007,5.0859,4.3715,6.78,5.83,7.9775,6.8664,13.777,8.0744,17.3072,7.6435a313.823,313.823,0,0,1,43.5981,37.44q2.8773,2.9776,5.6989,6.0919l2.7945,3.1424,1.3789,1.5938,1.3171,1.5563a114.1776,114.1776,0,0,1,7.617,10.2874,53.6085,53.6085,0,0,1,3.1108,5.4066,22.5839,22.5839,0,0,1,1.1827,2.839,5.8712,5.8712,0,0,1,.37,3.0229c-.1222.5371-.6506.8357-1.0336,1.197l-1.2205,1.0549c-.8193.6915-1.5206,1.4838-2.2771,2.2095-1.4589,1.5005-2.8369,3.0185-4.2,4.49-1.2355,1.3621-2.506,2.6471-3.7209,3.9259l-1.8354,1.771c-.8166.8184-1.6457,1.6853-2.5147,2.4406a134.4845,134.4845,0,0,1-10.3351,8.72l-5.24,3.8114c-1.7709,1.1918-3.5648,2.3041-5.2781,3.4224q-1.2894.8334-2.5483,1.6473c-.8609.5214-1.7469,1.002-2.6,1.4953q-2.5683,1.467-4.9938,2.853c-1.5809.9558-3.2449,1.7442-4.8106,2.5451l-4.5311,2.301c-2.8512,1.5275-5.653,2.7055-8.0949,3.8342-2.4488,1.1283-4.6065,2.1228-6.4377,2.9665-1.85.8277-3.425,1.45-4.59,1.9771a27.2718,27.2718,0,0,0-3.2625,1.71c-.0486-.0089-.0926-.022-.1415-.0306-1.9961-.3545-3.6764-.5608-5.1477-.7069l-.094-.1005a1.9717,1.9717,0,0,0-1.2655-.0266l.0017.0016c-4.66-.3955-6.9445-.3343-10.2344-3.2384-2.6645-2.352-4.872-6.133-6.6965-10.1314a39.6739,39.6739,0,0,0,11.7366-2.7276c3.7533-1.6148,8.2352-6.4307,11.2006-12.9631a71.62,71.62,0,0,0,20.1479-18.5844c-.6891-.6922-5.6477-5.0523-6.3417-6.048a21.6068,21.6068,0,0,0,6.3306,3.9517,21.6081,21.6081,0,0,0,3.2448-6.1672,14.383,14.383,0,0,1-3.1829-2.4565,9.0859,9.0859,0,0,0,3.54,1.5615c1.2643-2.2358,1.9586-5.1888,3.1084-8.1025-6.9874-3.8639-11.5646-8.04-17.9561-14.5962,5.8887,3.6028,13.8181,6.6619,19.5777,6.5837-11.4291-5.3094-23.201-14.05-27.2733-22.6773-3.7162-7.8719-4.01-19.7663-16.1969-26.0386-6.5861-10.6935-15.4148-11.4154-17.0981-11.35-2.1371-2.2136-11.14-10.6925-36.1344-5.1806S359.2684,56.8777,355.35,68.6172c-2.7857,8.3448-1.226,20.2474,1.1116,28.8931-.5645,2.973-1.006,5.7124-1.3774,8-1.5076,9.2857-9.9054,21.8585-16.1048,31.35,4.181-2.9985,8.9771-10.9464,14.4841-21.09-3.8351,11.5169-13.0779,24.8268-17.7566,30.6485,5.1152-3.35,12.7879-12.9112,19.1144-25.0723-1.8,7.7287-11.6385,25.78-13.778,28.2385,2.4095,3.0987,20.48,11.8493,24.0652,12.7124a89.0319,89.0319,0,0,1,5.56-13.1347,44.9106,44.9106,0,0,0,.5025,14.17c5.8257,1.6594,12.27,1.3969,17.7706.5445.4177,1.2893.84,2.4788,1.268,3.5138,7.333.1737,11.41-2.1886,11.41-2.1886,2.637.473,10.8421,2.1858,15.5564-2.0193a73.7134,73.7134,0,0,1-17.1445-17.57c5.6459,4.5059,13.844,7.7167,22.517,9.4677a85.0347,85.0347,0,0,1,1.8456,10.7464c.1027,1.1157.1593,2.1583.1618,3.1112.0126,4.7862-2.6454,8.4942-6.1527,11.8679a2.2034,2.2034,0,0,0-.7076.6672c-4.307,3.9733-9.6472,7.5426-12.9621,11.9574a20.2036,20.2036,0,0,0-2.1041,1.4932c-1.5931,1.2981-7.6238,7.1571-16.7361,15.1965-4.5617,4.0047-9.8866,8.574-15.8555,13.2387-2.9268,2.318-6.3128,4.8111-9.0046,6.7522a97.9424,97.9424,0,0,1-9.388,6.0083,43.2362,43.2362,0,0,1-5.3008,2.523c-.4577.1935-.9382.3155-1.4093.4771a9.1341,9.1341,0,0,1-1.4428.3743l-.7323.1534c-.2456.0341-.4937.0354-.7411.0547l-.7441.0415a3.3693,3.3693,0,0,1-.7155-.1541,28.0861,28.0861,0,0,1-5.0958-2.8327c-1.64-1.08-3.2609-2.2254-4.8807-3.399s-3.2338-2.3833-4.8463-3.6113q-1.2133-.9331-2.4206-1.8613-1.2779-1.002-2.5474-1.9976c-3.4253-2.7074-6.7837-5.4264-10.0521-8.1093-13.0693-10.75-24.6979-20.8837-33.015-28.5889-.2237-.2074-.4466-.397-.6685-.5757a13.845,13.845,0,0,0-1.4928-4.364l.0023-.0062c-.0147-.0287-.0339-.0575-.0489-.0862q-.3555-.68-.7732-1.3629c-.046-.0752-.0938-.1507-.1408-.2259-.291-.4671-.595-.9351-.9221-1.4051-.0829-.1073-.1875-.2179-.2793-.3267-1.4744-2.1623-3.1952-4.0837-4.437-5.9264-2.677-3.9715-2.4632-6.4455-6.0793-7.8493-6.009-2.3333-6.8123-5.3927-8.4134-4.7451-2.4791,1.0025-1.8126,5.3829.73,7.2993s2.7066,1.4044,4.2039,2.9c1.1981,1.1964,1.016,3.8542-.3667,6.0618-2.6456,2.4989-4.9471,2.2638-7.2419,1.9879h0c-1.8113-.2178-2.8962-.5842-4.7076-.7726-3.1417-1.7862-6.4494-3.1908-8.8347-4.2926-1.5371-.71-4.8606-6.0353-4.9987-6.41a16.7874,16.7874,0,0,1-.5268-4.5883c-.281-4.4292-1.4068-5.6687-2.9161-6.2027-1.9336-.6839-.8342,3.3513-1.7228,8.7443-.4958,3.0094-.2469,4.691,4.1247,10.1856a33.4047,33.4047,0,0,0,2.9678,3.5336c-1.9558-.436-3.79-.7908-5.307-1.1136-1.8-.383-6.6013-5.2278-6.838-5.5916a18.2557,18.2557,0,0,1-1.6609-4.7358c-1.3619-4.6264-2.8529-5.669-4.5806-5.8722-2.2136-.26-.0786,3.7519.2754,9.68.1981,3.3087.866,5.0308,6.8189,9.8028,1.9128,1.5335,3.5862,3.216,7.1566,4.5736,1.3983.5315,2.4262.96,3.5653,1.4635-2.0308.5173-3.9084,1.0548-5.4732,1.471-1.8311.4864-8.4964-1.7249-8.8832-1.9491a18.7865,18.7865,0,0,1-3.7308-3.5753c-3.4061-3.6133-5.2605-3.8758-6.9416-3.2574-2.1539.7922,1.6755,3.4815,4.7621,8.7594,1.723,2.9461,3.1385,4.216,10.8273,5.8249,2.47.5169,4.7908,1.2823,8.7014.8654,2.2057-.2349,3.6-.3095,5.7726-.4011-2.4,1.1941-4.6062,2.4848-6.3391,3.4414-1.4151.781-7.3879.3269-7.7538.2215a16.05,16.05,0,0,1-3.8264-2.1885c-3.5648-2.2871-5.1536-2.1212-6.4173-1.2631-1.6188,1.1012,2.1057,2.5357,5.75,6.2664,2.0343,2.0829,3.468,2.8407,10.1633,2.5846a31.4781,31.4781,0,0,0,7.38-1.08,22.5189,22.5189,0,0,1,8.5217-.8741h.0084a12.3808,12.3808,0,0,0,2.7039.4912c5.4506.3981,6.9414.1846,8.4552.0024a26.4564,26.4564,0,0,0,13.7932-5.458c8.1716,6.6946,18.3676,16.1873,29.4515,26.7446l9.0376,8.6,2.3208,2.1976,2.6073,2.4332c1.98,1.8148,4.0065,3.6589,6.0648,5.4689a79.3013,79.3013,0,0,0,13.0123,9.7715,28.2486,28.2486,0,0,0,3.5728,1.6579,5.595,5.595,0,0,0,1.957.4082l1.0027.0681c.3329.01.662-.0106.9933-.0144,1.3316.0089,2.6284-.1571,3.9359-.2749,1.2855-.2727,2.5915-.4315,3.8589-.8114a77.48,77.48,0,0,0,14.8909-5.7334c4.7092-2.2837,9.8849-5.2622,12.97-7.0431,7.0347-4.0617,13.3069-8.0913,18.8467-11.7539,4.2066-2.7974,7.964-5.3925,11.1942-7.6877a147.7,147.7,0,0,0,9.6239,15.1667c2.836,3.9833,5.9215,7.9656,8.9532,12.0062a4.0473,4.0473,0,0,1-.5378-.0295c.0006.0027,6.5308,9.7091,8.5157,12.822,2.4092,3.7756,11.9216,26.7583,12.3269,40.3436.3961,13.3709-1.0963,23.5415-1.3637,29.6074l.0026-.0008c-.83,6.2665-1.1968,12.4817.5781,18.4585a19.3665,19.3665,0,0,0,.178,3.1042c1.495,10.3792,4.227,22.5452,8.09,37.7392,1.9059,7.5979,4.1041,15.9674,6.26,25.2585a222.3575,222.3575,0,0,1,5.3125,30.7208c.0869,1.5082.2464,3.0332.2875,4.5146l.0886,2.1836c.0365.6782.0218,1.288.0358,1.9365a68.6349,68.6349,0,0,1-.32,7.6814,28.3624,28.3624,0,0,1-.6566,4.0287,16.2948,16.2948,0,0,1-1.6879,3.6671,39.6849,39.6849,0,0,1-4.9922,6.3609c-.9341.9856-1.889,1.9624-2.8877,2.9017-.9353.9122-2.2014,2.0324-3.356,3.0427-2.3715,2.06-4.8479,4.0642-7.3907,6.023a300.2169,300.2169,0,0,1-33.2846,21.8548l.9693,1.6609c-12.1817,7.2669-24.7238,14.0341-37.3455,20.334-.2984.149-.5731.2949-.8541.4417-.8162-1.9375-1.54-3.463-2.6975-3.4466-2.2941.0324-9.8138,3.3429-11.65,5.0515s-.5829,4.0221.7075,5.683,1.2695,2.7,6.5963,2.8183a49.1364,49.1364,0,0,0,8.4491,30.5127c9.3619,13.7984,11.1393,13.3333,11.766,3.9229s-3.5556-28.3007-4.4644-30.71A17.2978,17.2978,0,0,0,380.74,544.46c.0859-.0538.1639-.0993.251-.1544,10.9469-6.9278,23.4467-14.1147,36.6056-21.6786l.9933,1.7022c12.4135-6.8217,23.4292-13.166,34.5107-20.3576,2.77-1.8067,5.5428-3.6759,8.3394-5.6706,1.4094-1.0021,2.7789-2.0121,4.238-3.1228,1.573-1.2118,3.17-2.4953,4.7243-3.8319a63.9939,63.9939,0,0,0,8.8233-9.02,30.6416,30.6416,0,0,0,3.5158-5.5516,40.6609,40.6609,0,0,0,2.1293-6.4137q.4489-2.0353.93-4.215c.3013-1.4593.5194-2.9856.7756-4.5488.2367-1.5654.3967-3.1842.5842-4.8363.1719-1.6983.2512-3.1063.3807-4.6192a166.1689,166.1689,0,0,0,.0893-18.8064c-.2734-5.7841-.7481-11.1137-1.2625-16.1032-1.0426-9.98-2.299-18.5495-3.4665-26.3065-1.21-7.8827-2.3673-14.9008-3.498-21.495,2.654-.5376,5.3414-1.2645,8.0385-2.081a29.668,29.668,0,0,0,5.2694-2.2089c1.1871,4.2446,2.4733,8.7484,3.8308,13.5629,2.2207,8.234,4.9058,17.3858,7.3741,27.6214.6316,2.5609,1.3526,5.1958,1.9675,7.8994q.867,4.0562,1.7814,8.334.4594,2.1425.9317,4.3424c.3065,1.4673.6691,2.9552.8815,4.4621q.7431,4.5286,1.5257,9.297a294.0151,294.0151,0,0,1,3.5534,53.0365c-.1447,4.3877-.51,8.7815-.788,13.1946-.1626,2.2062-.2886,4.4186-.5007,6.6344q-.4146,3.324-.8309,6.66c-.5851,4.4526-1.1524,8.9382-1.87,13.4566q-1.2382,6.7661-2.6395,13.6616l2.0941.419c-1.0332,5.5581-2.1535,11.1052-3.52,16.6046q-1.7137,7.2855-3.568,14.5086-1.9906,7.1971-4.1612,14.2978a37.4213,37.4213,0,0,0-1.32,5.598c-1.0519-.0226-1.8442.1545-2.2019.7839-1.1334,1.9949-2.0855,10.1557-1.5414,12.604s3.1736,2.5389,5.2591,2.2668,2.9709.2721,5.77-4.2617a49.1362,49.1362,0,0,0,30.5909,8.1608c16.6389-1.0882,17.1378-2.8563,9.34-8.1608s-26.2061-11.2611-28.7442-11.6972a17.9454,17.9454,0,0,0-5.1933-.038c.1695-.7194.3367-1.4707.5-2.2944q1.32-6.6625,2.8648-13.7246c.9605-4.7249,1.9467-9.5827,3.0141-14.5269,1.3224-5.8125,2.553-11.8288,3.8015-17.9417l2.127.4256c.9972-4.4828,1.9631-8.8249,2.9079-13.0726.906-4.2631,1.5962-8.5,2.3865-12.6536q.5749-3.122,1.1441-6.2128l.57-3.09.4387-3.1228c.5948-4.1625,1.1892-8.3224,1.79-12.5279a392.286,392.286,0,0,0,3.1915-56.5073q-.246-5.3033-.4772-10.2866c-.1737-3.3251-.2465-6.588-.604-9.6625q-.4431-4.6514-.86-9.0251c-.2957-2.9148-.5069-5.7859-.9167-8.4756-.7433-5.4365-1.4425-10.55-2.1049-15.3945-.75-4.8063-1.546-9.3038-2.2835-13.6241-1.44-8.6781-3.083-16.2877-4.6265-23.6065-1.5463-7.3274-3.2484-14.0871-5.0227-20.95-.169-.65-.3815-1.3357-.6386-2.042a6.9805,6.9805,0,0,0-.3189-1.7964c-.7137-2.1618-1.8258-4.97-3.1067-7.9546l.0013-.0013c-1.518-4.4774-7.5172-17.73-9.5211-22.0951s-6.8874-19.0348-8.0247-26.49-.63-21.2517.7-28.1917a49.5731,49.5731,0,0,1,3.7858-12.5024c.9813-2.185,4.74-11.9458-2.7063-24.62a38.4619,38.4619,0,0,0-4.2263-5.1558c-1.205-1.954-2.5037-4.0263-3.8605-6.3459-1.2277-2.0991-2.3609-4.0279-3.4336-5.8167.9857-.5537,2.0689-1.1754,3.2579-1.8352,2.3264-1.3207,5.0345-2.8349,8.0453-4.5846l9.78-6.2026c1.7726-1.1185,3.5307-2.46,5.3887-3.7473,1.8389-1.3271,3.773-2.6228,5.6887-4.09l5.8311-4.6233,1.499-1.19c.4944-.4118.973-.8556,1.464-1.2851q1.4637-1.3,2.9586-2.6268c.9879-.8937,2.0145-1.7547,2.9939-2.6977q1.4487-1.4382,2.9231-2.9017c.9729-.9837,1.9872-1.9368,2.9442-2.9655l2.85-3.1469c.9569-1.0541,1.9273-2.1072,2.8206-3.2325l2.9989-3.6261q2.944-3.7533,5.8313-7.5706c2.0492-2.5418,3.901-5.1894,5.745-7.7376.908-1.2364,1.8011-2.576,2.7317-3.7195l1.3972-1.7364c.4375-.5915,1.054-1.0828,1.1406-1.9245A6.799,6.799,0,0,0,565.3039,115.2593Z" transform="translate(-208.4312 13.9608)"/></g></g></svg>