<svg xmlns="http://www.w3.org/2000/svg" viewBox="0 0 436.6419 619.1517"><defs><style>.cls-1{isolation:isolate;}.cls-2{fill:#fff;stroke:#231f20;stroke-miterlimit:10;opacity:0.4;mix-blend-mode:overlay;}</style></defs><g class="cls-1"><g id="Layer_1" data-name="Layer 1"><path class="cls-2" d="M608.395,5.7978c-2.3976,4.6313-8.4855,18.0156-9.47,19.6819.06-.2588.1251-.5245.17-.7594.6692-3.52-4.4366-6.4889-6.7273-1.653.0871-.3731.1684-.7366.2312-1.0671.7564-3.9788-5.7138-7.5509-7.9217-1.0805-.7552-1.9348,2.6574-16.3119,3.982-22.42,1.1049-5.0954-3.9336-7.68-5.4284-2.5022-.3255,1.1275-4.1134,15.3278-6.368,23.127-.3834,1.3264-.7552,2.5445-1.1161,3.679-2.2214,1.1537-4.653,4.0615-5.8036,5.0838-1.6765,1.4891-3.7787,3.3749-4.1824,5.4919s2.5943,8.3775,4.5874,15.0241l.0031.0081a29.5977,29.5977,0,0,0,3.2795,7.3168c-.141.3264-.2772.664-.4061,1.0167-5.0708,13.9076-12.0516,32.4794-20.451,52.2909-4.2253,9.8837-8.8313,20.0774-13.9492,29.9043-5.1129,9.7951-10.79,19.3042-17.119,27.031l-2.02,2.4053c-.3529.3245-.6805.67-1.037.9835l-1.1062.8927c-.8033.5489-1.4693,1.0707-2.3825,1.6361-.9275.6323-1.9753,1.2662-3.0047,1.8965-4.1689,2.5232-8.6785,4.9094-13.0925,7.138-8.8649,4.4618-17.4938,8.37-25.2147,11.7582-15.4692,6.7691-27.3632,11.4907-32.4314,13.71a29.5706,29.5706,0,0,0-4.55,2.4857c-1.7014-.58-3.1812-1.0129-4.4844-1.3592l-.0766-.114a1.9693,1.9693,0,0,0-1.2449-.2289l.0013.0018c-4.5367-1.136-6.8015-1.4412-9.5843-4.8342-2.5173-3.0692-4.1906-7.8056-5.3831-12.5623-.115-.4586-.2214-.9165-.3277-1.374,7.3653-.461,14.1708-2.01,19.0746-4.637,3.6023-1.93,7.657-7.1121,10.0531-13.8753a71.6188,71.6188,0,0,0,18.4848-20.2368c-.7456-.6308-6.0587-4.5512-6.8353-5.484a21.6028,21.6028,0,0,0,6.6452,3.3963,21.6108,21.6108,0,0,0,2.7059-6.4219,14.3755,14.3755,0,0,1-3.3812-2.1756,9.0845,9.0845,0,0,0,3.66,1.2533c1.0686-2.3357,1.508-5.3371,2.4047-8.3383-7.2921-3.2528-12.2094-7.023-19.1377-13.0086,6.175,3.0864,14.3368,5.4569,20.0687,4.8867-11.841-4.3131-24.3166-12.0163-29.1113-20.2638-4.3751-7.5256-5.6847-19.3513-18.3624-24.5592C414.56,68.85,405.702,68.8854,404.03,69.0948c-2.3184-2.0228-12.013-9.7016-36.4447-2.074S330.6615,95.6064,327.76,107.6379c-2.0625,8.5522.5086,20.2779,3.5763,28.6922-.3084,3.01-.5142,5.7774-.6887,8.0884-.7087,9.3808-8.0015,22.6249-13.3672,32.611,3.9094-3.3446,8.0089-11.6732,12.629-22.25-2.8369,11.8024-10.9086,25.8534-15.0728,32.0537,4.81-3.7749,11.6379-13.9568,16.9021-26.614-1.1333,7.8541-9.3931,26.68-11.3146,29.3125,2.6655,2.8812,21.4177,10.0559,25.0632,10.61a89.0541,89.0541,0,0,1,4.417-13.5617,44.9059,44.9059,0,0,0,1.7114,14.0747c5.9461,1.1556,12.344.3435,17.7521-.9759.5263,1.2489,1.0492,2.398,1.5636,3.3926,7.321-.4535,11.1809-3.1556,11.1809-3.1556,2.3583.2176,9.13,1.0212,13.667-1.966-.0748.9521-.1705,1.8545-.3006,2.6715-.7534,4.7266-3.9706,7.9615-7.9728,10.7307a2.2028,2.2028,0,0,0-.8046.5449c-5.3826,3.5606-11.9306,6.4329-15.8626,10.9276q-.498.5692-.9537,1.2014a24.4143,24.4143,0,0,0-3.8648,1.7292c-2.7154,1.4566-15.0085,9.83-33.0584,19.9576-4.5105,2.5222-9.3791,5.1449-14.5419,7.7356l-3.8253,1.8925q-1.7127.8538-3.5011,1.7008c-2.3842,1.1277-4.8671,2.2438-7.4508,3.31s-5.2681,2.0822-8.0565,2.9757a43.4358,43.4358,0,0,1-8.6925,1.95,11.9364,11.9364,0,0,1-4.4659-.297c-1.4944-.4208-2.3039-1.7372-3.3108-2.7653-.9727-1.0859-1.9923-2.1519-2.945-3.2833l-2.8838-3.4142c-2.3709-2.9127-4.72-5.9149-6.9686-9.02-1.1546-1.5312-2.2375-3.1241-3.3315-4.6935q-.8644-1.2546-1.7245-2.5023-.84-1.2831-1.676-2.5584c-4.4632-6.8016-8.5638-13.6372-12.2766-20.2632-7.0179-12.477-12.7975-24.1141-17.05-33.599a31.2541,31.2541,0,0,0,3.5335-10.5125l.0038-.0188c1.25-7.7968,3.6918-15.3089,2.9183-17.6364s-3.4279-4.139-5.5426-5.5669c-1.4515-.98-4.6309-3.8954-7.31-4.8633-.5775-1.2255-1.18-2.5437-1.8114-3.9823-3.7145-8.4591-10.12-23.9087-10.6564-25.1316-2.4638-5.6157-7.7591-1.944-5.7475,3.6377,2.4114,6.6917,8.42,22.397,7.8586,24.6929-3.462-6.9675-10.2242-1.9664-8.7735,2.4083.1183.3569.2624.7482.4134,1.148-3.3108-5.09-8.615-.9708-7.3326,2.896.0856.2582.1986.5481.3055.831-1.3606-1.7319-10.2376-15.9154-13.6376-20.78-3.1622-4.523-8.09-1.0655-5.4565,3.18,3.8106,6.1412,10.8737,19.0008,12.3381,22.3971,2.5928,6.014,4.9123,13.1167,7.1059,16.9659,2.6293,4.6135,12.1965,10.8883,18.5109,13.9251.1091.2427.22.4858.3493.7317,5.0427,9.5214,10.9227,21.9469,17.7755,35.8448,3.4133,6.9484,7.1168,14.2579,11.171,21.709q.7574,1.3983,1.5191,2.8055.8252,1.4517,1.6545,2.9113c1.3283,2.3143,2.6574,4.579,4.0814,6.8268,2.7573,4.566,5.7578,9.0094,8.8324,13.4779l3.7063,4.7.9317,1.1792L268,277.6857l2.0056,2.0512,2.0134,2.0514a9.2327,9.2327,0,0,0,2.218,1.8291,17.7092,17.7092,0,0,0,5.5511,1.8,46.7906,46.7906,0,0,0,11.4561.2891,88.52,88.52,0,0,0,11.5077-1.8325c3.8238-.8462,7.62-1.8928,11.36-3.0341,1.8694-.5743,3.7283-1.165,5.5679-1.7861l2.7518-.931,2.543-.89c5.6778-1.9527,11.0241-3.956,16.0328-5.9239,13.25-5.2291,24.1738-10.1748,31.6965-13.8225,1.2983,3.127,2.8361,6.5155,4.657,10.2091,2.1621,4.3858,4.5707,8.81,6.9168,13.2843a4.0236,4.0236,0,0,1-.5261-.1153c0,.0025,4.8931,10.6289,6.3544,14.0191,1.774,4.1127,7.4864,28.3213,5.7128,41.7964-1.7483,13.2619-4.8489,23.0627-6.0835,29.0077l.0028,0a55.339,55.339,0,0,0-2.565,12.8189,21.1384,21.1384,0,0,0-1.5706,3.8377c-3.1262,10.6695-6.2223,23.5959-9.847,40.2495C373.9787,430.8849,372,440.12,369.7776,450.49q-.8415,3.8548-1.73,7.9233-.9137,4.04-1.8772,8.301c-1.34,5.6069-2.7348,11.5876-4.4888,17.4449l-.5015,1.7352-.54,1.63-.5151,1.5821c-.1643.5177-.31.9993-.5,1.4539-.3688.9236-.695,1.8716-1.0983,2.7809-.4725.87-.84,1.81-1.3747,2.6428l-1.2575,1.97c-.4276.6523-.925,1.2509-1.3783,1.8871l-.6939.9455-.7811.909c-.5366.6088-1.0466,1.2644-1.622,1.8662a73.54,73.54,0,0,1-7.5331,6.9362,143.6317,143.6317,0,0,1-18.1521,11.94c-13.0142,7.3419-27.0062,13.9971-41.5025,21.42l.9686,1.8634c-4.9872,2.6462-9.9594,5.3435-14.8778,8.1412q-13.02,7.3758-25.5831,15.4389a30.3507,30.3507,0,0,0-4.86,3.69c-.5065-1.097-1.0145-1.83-1.8305-1.6968a36.3907,36.3907,0,0,0-10.9964,6.0732c-1.797,1.9081-.4441,4.3955.879,6.124a6.6714,6.6714,0,0,0,1.957,1.9378c.8379.4171,2.1156.59,4.6745.1321.0718.4575.1689,1.0763.2842,1.8115a16,16,0,0,0,.607,2.5844c.298.9557.67,2.0276,1.1373,3.1973a28.1766,28.1766,0,0,0,1.9241,3.5446,21.621,21.621,0,0,0,2.853,3.6862,25.6931,25.6931,0,0,0,1.7995,1.8437q1.006.8435,2.1271,1.69c.7512.5549,1.5256,1.14,2.367,1.66q1.2894.723,2.6976,1.4158c.9413.4526,1.909.9244,2.9369,1.3188q1.5655.5314,3.243.9979l3.155.8438c1.0043.1956,1.9451.362,2.8212.5093,1.7526.2929,3.2509.4961,4.5123.6137,2.5465.1359,4.146-.0736,4.9447-.5355,1.6161-.95-.0028-2.9943-3.0484-6.2847-.75-.8631-1.6337-1.7665-2.59-2.6963l-1.4869-1.4011-.7742-.7045-.77-.77c-1.0335-1.0278-2.093-2.0494-3.138-3.0389-1.0459-.9877-2.01-2.1246-2.9668-3.1-.47-.5069-.9441-.9685-1.3772-1.4671l-1.2284-1.49Q254,589.08,253.4648,588.44a12.3033,12.3033,0,0,1-.98-1.25c-1.1629-1.651-2.0523-2.7286-2.3871-3.1755a10.4356,10.4356,0,0,0-1.7752-1.7209c1.1307-.7515,2.4-1.6948,3.8529-2.83a206.8149,206.8149,0,0,1,22.6815-15.5814c4.8989-2.9377,10.0473-5.7537,15.3771-8.4751l.9859,1.8968c14.26-6.9272,27.3546-12.3577,41.0838-18.686a199.5306,199.5306,0,0,0,21.2724-11.1621,93.905,93.905,0,0,0,11.1178-7.9632,71.3334,71.3334,0,0,0,10.9076-11.2579q.2226-.2829.45-.5723l.4129-.6183q.42-.6257.8562-1.2762a28.5035,28.5035,0,0,0,1.7093-2.7539c1.0616-1.9314,2.2327-4.08,3.1027-6.0925,3.1654-6.8312,5.4525-12.89,7.5634-18.6128l1.5485-4.2221q.7287-2.0657,1.4356-4.0691,1.4292-4.0174,2.6976-7.77c3.4394-10.0432,6.3153-18.8551,8.8967-26.9118,3.2937-10.3095,6.0612-19.3669,8.5427-28.0519a70.293,70.293,0,0,0,12.9909-.745,37.3413,37.3413,0,0,0,14.5326-5.694c8.9187,5.1333,19.6285,11.0571,32.5722,19.6933a238.7818,238.7818,0,0,1,21.3318,15.9353c3.7517,3.1771,7.5958,6.643,11.407,10.4843.9545.9593,1.9169,1.9356,2.8467,2.9514.9576,1.0018,1.8889,2.0367,2.8133,3.0965.4679.5274.9439,1.0566,1.388,1.6037l1.1641,1.3662c.7681.9463,1.559,1.9064,2.3127,2.92a59.17,59.17,0,0,1,5.7857,9.104,24.675,24.675,0,0,1,1.89,5.0391,17.0842,17.0842,0,0,1,.3026,5.3024,37.907,37.907,0,0,1-2.7043,10.2451c-.6542,1.66-1.3931,3.2931-2.1651,4.9243-.3912.8128-.79,1.6258-1.2066,2.4324l-.6391,1.239-.7406,1.3764c-4.0295,7.342-8.6617,14.6209-13.498,21.9529-4.8466,7.3349-9.9352,14.7349-15.1558,22.3989l1.7186,1.1514c-8.4088,12.8085-16.6527,25.8512-23.8686,39.5-.2531.4818-.4865.9473-.7061,1.4015a7.4,7.4,0,0,0-1.211-.2722,1.685,1.685,0,0,0-1.6179.4126c-1.4742,1.7207-4.45,9.5293-4.5176,12.0778-.06,2.5494,2.65,3.3534,4.8681,3.4784,2.1026.1466,3,.8747,6.2557-2.666a5.2006,5.2006,0,0,0,1.0076.0159c.6859.6039,1.633,1.4216,2.8663,2.3561a45.294,45.294,0,0,0,6.3239,3.8369,44.6192,44.6192,0,0,0,21.1137,4.3951c8.6961-.3059,13.0951-1.1035,14.3612-2.3556,1.2647-1.27-.63-3.0445-4.5888-5.7628-3.9581-2.7387-10.5385-5.6755-16.2572-8.255-2.8717-1.2522-5.5183-2.4579-7.6142-3.3089a44.6612,44.6612,0,0,0-4.19-1.7,18.1873,18.1873,0,0,0-3.9406-.6058,183.2006,183.2006,0,0,1,11.2981-21.9841c2.8811-4.8323,6.0213-9.6968,9.3439-14.5841l1.7446,1.1688c5.0014-7.0307,9.8636-13.5741,14.6557-20.0323,4.79-6.4685,9.5328-12.81,14.2614-19.6433,1.1872-1.7113,2.3512-3.4422,3.5431-5.2621,1.3142-2.0364,2.651-4.1784,3.9034-6.3582a79.7432,79.7432,0,0,0,6.5887-14.0368,45.0474,45.0474,0,0,0,1.9425-7.859,28.7414,28.7414,0,0,0,.0817-8.3688,44.5552,44.5552,0,0,0-2.1151-8.44c-.4553-1.4183-1.0523-2.8039-1.614-4.2278-.6251-1.3955-1.236-2.8257-1.9481-4.2317a106.6852,106.6852,0,0,0-6.0106-10.5283q-.8283-1.2447-1.644-2.47c-.4595-.7154-.9387-1.3909-1.4108-2.0684-.9395-1.3625-1.88-2.6888-2.8354-3.9554-3.7905-5.1173-7.5944-9.6477-11.3158-13.784A222.3572,222.3572,0,0,0,495.16,399.3115a231.17,231.17,0,0,0-19.4419-14.7962c-4.6979-3.2115-9.3335-6.0934-14.0288-8.7834a8.1055,8.1055,0,0,0,.1562-2.9358c-.3586-2.2482-1.0071-5.1982-1.7939-8.3492l.0014-.001c-.782-4.6626-4.5835-18.7043-5.8631-23.3338s-3.753-19.8916-3.6828-27.4327,2.7787-21.0786,5.202-27.7166a49.5625,49.5625,0,0,1,5.7374-11.7353c1.3182-2,6.5908-11.0335,1.2678-24.7356a38.46,38.46,0,0,0-3.3472-5.7661c-.8767-2.1214-1.8271-4.3748-2.7951-6.8814-1.1037-2.8576-2.1051-5.436-3.0544-7.7738,4.1227-1.9906,13.4337-6.7565,25.8772-13.5979,7.3266-4.0339,15.729-8.7944,24.7362-14.2817,4.5-2.7556,9.149-5.6994,13.8633-8.9441,1.1806-.8,2.357-1.6682,3.5446-2.5062,1.182-.8861,2.3694-1.751,3.555-2.6979l1.8142-1.4613c.6213-.5193,1.2223-1.0664,1.832-1.6012.62-.5238,1.1841-1.1117,1.76-1.686a19.0188,19.0188,0,0,0,1.64-1.8107,19.2957,19.2957,0,0,0,1.4671-1.9542l1.3628-1.9815c.8441-1.2709,1.77-2.5052,2.5489-3.8129l2.3373-3.929c.7884-1.3075,1.5693-2.62,2.2509-3.9765,2.8961-5.3539,5.5453-10.8276,7.9758-16.35,4.8884-11.0343,9.1073-22.185,13.0389-32.8753,7.7631-21.408,14.5546-40.9514,20.4946-54.875.0425-.0995.0749-.193.1154-.2912,4.5-2.1206,15.2789-10.7053,17.4127-15.9608,1.4644-3.6073,2.661-10.0631,4.2222-15.6025.8817-3.1283,5.5428-15.1488,8.15-20.94C615.3187,3.9315,610.6249,1.4913,608.395,5.7978ZM378.858,180.5361a48.2255,48.2255,0,0,0,16.8806,6.4991c.1888,3.1188.254,6.0056.1706,8.5549A72.9128,72.9128,0,0,1,378.858,180.5361Z" transform="translate(-177.7779 7.331)"/></g></g></svg>