<svg xmlns="http://www.w3.org/2000/svg" viewBox="0 0 424.7604 563.3077"><defs><style>.cls-1{isolation:isolate;}.cls-2{fill:#fff;stroke:#231f20;stroke-miterlimit:10;opacity:0.4;mix-blend-mode:overlay;}</style></defs><g class="cls-1"><g id="Layer_1" data-name="Layer 1"><path class="cls-2" d="M600.0261,549.303c-9.2391-1.8942-28.5215-.3061-31.0319.2683a18.0373,18.0373,0,0,0-4.8728,1.9992c-.2592-.5992-.5363-1.2194-.8505-1.8839-1.8132-3.8456-3.6635-7.8362-5.497-11.97Q555.0762,531.49,552.35,524.9c-2.1615-5.1644-4.2717-10.522-6.379-15.981l1.91-.7563c-2.9726-8.0807-5.7584-15.6534-8.48-23.0514-1.4293-3.7183-2.8416-7.3927-4.2532-11.065-.7217-1.8375-1.3808-3.6775-2.15-5.5186s-1.541-3.6891-2.3167-5.5464q-1.1562-2.789-2.3272-5.614l-.5871-1.4175-.6579-1.4091-1.3225-2.8412q-1.323-2.8593-2.6775-5.7873l-1.3659-2.9514q-.7667-1.4526-1.545-2.9267l-3.1528-6.0072q-.7985-1.53-1.6119-3.0891c-.5239-1.0527-1.1805-2.0243-1.7722-3.0566l-3.7158-6.2592c-1.2819-2.1125-2.4916-4.3741-3.951-6.46L500.6,407.0312l-2.5867-3.89-2.6415-3.6037q-2.6106-3.553-5.0652-6.8941c-1.6522-2.2127-3.2078-4.4472-4.836-6.4257-6.4247-8.0583-12.0784-15.3028-17.5018-21.4756-10.6925-12.6568-19.8074-22.263-29.3183-31.8222a22.03,22.03,0,0,0-1.9873-1.7221,10.0489,10.0489,0,0,0,.9372-4.6765c-.2293-2.2651-.7077-5.2474-1.3129-8.4383l.0015-.001c-.5137-4.7-3.5049-18.9359-4.5172-23.6311s-2.6079-20.0739-2.1059-27.5987,3.9811-20.885,6.7805-27.3731a49.5694,49.5694,0,0,1,6.4-11.3877c1.4306-1.921,7.2119-10.6377,2.6822-24.6221a38.4476,38.4476,0,0,0-3.0114-5.9481c-.3175-.9133-.6435-1.8459-.9807-2.8181,4.1641,1.3515,8.7931,2.76,13.8136,4.15a312.5421,312.5421,0,0,0,33.8658,7.4747c3.115.4924,6.2936.9323,9.5346,1.2861,1.6215.1745,3.2557.3349,4.91.4577.8369.0669,1.63.12,2.5176.1692.9061.0614,1.8036.0921,2.706.1277a60.8391,60.8391,0,0,0,10.7706-.4678,24.84,24.84,0,0,0,5.2154-1.2934,11.1453,11.1453,0,0,0,2.394-1.24l2.1926-1.5866a60.7722,60.7722,0,0,0,10.366-10.5235l2.1156-2.8787c.7216-.9253,1.28-1.9458,1.9245-2.91.6132-.9821,1.2695-1.937,1.8413-2.9328l1.6708-2.9975a160.5365,160.5365,0,0,0,10.3964-24.1236c5.3861-15.8616,8.7044-30.5,11.4485-41.7241.1326-.563.2283-1.0938.3076-1.61a6.4265,6.4265,0,0,0,.8155-.3706c2.937-1.6123,12.3718-14.6872,12.9447-20.87.3553-3.8366-.7465-10.6947-1.3547-16.3577-.0009-.0093-.0075-.0139-.0087-.0229-.0086-.1015-.0121-.2105-.0225-.3092-.3071-2.9055-5.01-4.1907-6.109-.4505-.0185-.3274-.0385-.65-.0689-.9377-.3521-3.3285-5.4471-4.7025-6.6527-.4069-.0093-.1-.0149-.2161-.025-.312-.4121-3.8948-7.2558-5.42-7.75.8728-.0488-.3708-.103-.7228-.1665-1.0392-.715-3.5561-8.073-3.8583-7.8824,2.0258.0926,1.1775.1729,2.2667.2424,3.26-1.9812,1.5242-3.6407,5.4772-4.5067,6.886-1.1622,1.89-2.6148,4.2785-2.3914,6.4s4.8548,7.1939,8.6441,12.92l.0093.0128a30.1283,30.1283,0,0,0,4.5845,5.4476,14.993,14.993,0,0,0-.7608,2.77,225.629,225.629,0,0,1-11.3533,40.1867,130.2862,130.2862,0,0,1-10.8035,21.604q-.8217,1.263-1.6479,2.5332c-.5611.8323-1.1814,1.5967-1.7669,2.4006-.6087.7739-1.1512,1.6382-1.81,2.3419l-1.7875,2.07a39.3879,39.3879,0,0,1-7.31,6.2919,12.088,12.088,0,0,1-2.872,1.5019,14.1547,14.1547,0,0,1-3.2163.4948,37.5711,37.5711,0,0,1-6.4-.3258c-.5223-.0595-1.04-.14-1.5556-.2138l-1.6675-.261c-1.3456-.2133-2.698-.4528-4.05-.71-2.707-.5206-5.4134-1.1227-8.089-1.78a273.0293,273.0293,0,0,1-29.7751-9.33,356.18,356.18,0,0,1-35.7809-15.79,27.522,27.522,0,0,0-3.6306-1.456,22.2105,22.2105,0,0,0-3.03-1.5285c-1.8721-.7778-3.4682-1.3427-4.873-1.8036l-.07-.1182a1.97,1.97,0,0,0-1.23-.3l.0014.0019c-4.4643-1.3939-6.708-1.8282-9.292-5.3751-2.3375-3.2083-3.7367-8.0327-4.6549-12.85q-.1743-.9147-.3262-1.8257c7.1038,1.2793,13.9181,1.4112,19.2105.0871,3.9641-.992,9.1606-5.0272,13.1351-11A71.6191,71.6191,0,0,0,457.29,113.3342c-.5692-.7937-4.7645-5.8926-5.29-6.9867a21.61,21.61,0,0,0,5.6151,4.9157,21.6124,21.6124,0,0,0,4.1917-5.5669,14.3765,14.3765,0,0,1-2.7478-2.9353,9.0866,9.0866,0,0,0,3.2436,2.1091c1.6065-2.0043,2.7653-4.8077,4.3675-7.4991-6.2774-4.9345-10.1256-9.7911-15.3831-17.287,5.2347,4.5007,12.571,8.7915,18.2685,9.638-10.43-7.0733-20.6476-17.5888-23.2838-26.7572-2.4057-8.366-.7889-20.1536-11.8118-28.2989-4.7861-11.6112-13.3847-13.74-15.0568-13.9444-1.7545-2.5278-9.2813-12.3408-34.8359-10.908S341.7819,28.5207,336.0312,39.48c-4.0877,7.79-4.4569,19.7887-3.5361,28.6974-1.0339,2.844-1.9089,5.477-2.6423,7.6754-2.9772,8.9241-13.2824,19.9873-20.9236,28.3616,4.6077-2.2892,10.6163-9.3652,17.6785-18.4943-5.6322,10.753-16.89,22.4084-22.4415,27.4046,5.5862-2.4865,14.6929-10.6936,22.8876-21.6828-3.0162,7.34-15.622,23.58-18.1279,25.6637,1.8815,3.4449,18.315,14.98,21.7152,16.4068a89.0228,89.0228,0,0,1,7.5938-12.073,44.9067,44.9067,0,0,0-1.7762,14.0666c5.4842,2.5721,11.8868,3.3464,17.4533,3.3871.2055,1.34.4321,2.5814.6881,3.6715,7.21,1.3474,11.613-.3307,11.613-.3307,2.527.89,10.3512,3.8963,15.6788.5014a73.71,73.71,0,0,1-14.1044-20.09,47.7766,47.7766,0,0,0,14.3741,10.2307,98.9555,98.9555,0,0,1-.4452,14.88c-.141,1.1117-.3112,2.1419-.5149,3.0727-1.0227,4.6756-4.42,7.7211-8.574,10.2565a2.1978,2.1978,0,0,0-.8343.4979c-5.0691,2.9506-11.0612,5.2822-15.2531,8.8812a179.8538,179.8538,0,0,0-24.46-6.32c-4.0894-.779-8.5-1.48-13.1755-2.0533q-3.505-.4351-7.214-.732c-1.2331-.1037-2.4856-.1851-3.7508-.26-1.3492-.0837-2.7992-.152-4.1992-.1977a74.2859,74.2859,0,0,0-17.0967,1.1693,28.842,28.842,0,0,0-4.1759,1.188,14.0687,14.0687,0,0,0-3.8584,2.0708,11.8542,11.8542,0,0,0-1.5464,1.5836l-1.4683,1.6679c-.99,1.0928-1.9318,2.2536-2.8666,3.4175-1.4854,1.8491-2.9289,3.7227-4.3519,5.5956-.7046.9263-1.4528,1.8778-2.1063,2.7832l-1.9157,2.6141q-3.8142,5.2375-7.44,10.5425c-4.827,7.0531-9.3615,14.1195-13.5655,20.925-8.2644,13.5551-15.1338,26.1136-20.4165,35.6444-4.5,2.7163-15.0941,13.2339-16.7575,19.1242-1.1347,4.0188-1.5251,10.7724-1.9926,16.9276-.3417,4.5033,4.8132,6.4231,6.6626,2.94-1.003,4.8782,5.3211,6.9449,6.871,2.9554-.4428,5.4093,7.5528,6.3181,8.5636.138-1.0237,6.8836,7.9944,6.601,8.78,1.1964.2077-1.43.4226-2.7449.641-3.975,2.2689-1.4512,4.5752-4.9383,5.7-6.1849,1.6113-1.7859,3.63-4.0453,3.81-6.35s-3.7567-8.6245-6.6677-15.4746l-.0056-.0118a31.938,31.938,0,0,0-4.2449-7.2623,238.2135,238.2135,0,0,1,19.6477-32.8083c4.4807-6.2887,9.3994-12.7118,14.6482-19.0139,2.62-3.1545,5.3285-6.2729,8.0905-9.3351l2.08-2.2874c.3161-.3426.5751-.6212.8364-.8822l.7915-.8064c1.0487-1.0746,2.0939-2.1266,3.1471-3.1424,1.2347-1.2087,2.463-2.3844,3.71-3.49a9.5693,9.5693,0,0,1,4.8284-1.39,43.5181,43.5181,0,0,1,9.7195.6653c.766.1269,1.52.27,2.261.4149q1.2987.2573,2.576.51c1.99.3953,3.9558.8281,5.8815,1.2993,3.85.93,7.5347,1.978,10.9753,3.0536,6.8869,2.1627,12.795,4.4478,17.4026,6.42,4.6149,1.9729,7.9494,3.6106,9.8989,4.52a15.3988,15.3988,0,0,0,2.0215.7664,142.6772,142.6772,0,0,0,6.4646,18.136c1.9076,4.5024,4.0589,9.0578,6.1449,13.6585a4.0311,4.0311,0,0,1-.5187-.1452c0,.0027,4.2764,10.8917,5.5412,14.36,1.5355,4.2073,5.8524,28.7033,3.31,42.0546-2.5049,13.14-6.1616,22.7472-7.7346,28.6119l.0027,0c-1.9472,5.3407-3.5189,10.7221-3.496,16.2749a21.59,21.59,0,0,0-1.2492,4.2929c-2.0277,11.3269-3.6491,24.9958-5.3079,42.4217-.8424,8.7085-1.6955,18.3475-2.8505,28.9779-.5915,5.3039-1.269,10.85-2.1632,16.5747q-.6622,4.3005-1.5459,8.6889c-.2948,1.4628-.6313,2.9128-.9622,4.392-.3739,1.42-.7167,2.9794-1.1306,4.3269-.2841.9885-.56,2.0227-.8517,2.8646-.2873.8877-.545,1.79-.8845,2.6592-.3164.8794-.6335,1.76-1.0112,2.6146l-.5424,1.2946-.6074,1.2633a34.249,34.249,0,0,1-6.3142,9.2181,30.3589,30.3589,0,0,1-9.1518,6.3677,41.1873,41.1873,0,0,1-10.8393,3.0941l-2.8361.3592c-.95.1114-1.9122.1424-2.8736.2249-.9232.0956-2.0322.0854-3.0746.1139-1.0532.03-2.1129.0439-3.1868.0033a119.9592,119.9592,0,0,1-13.0418-.9581,202.8065,202.8065,0,0,1-26.9016-5.3954l-.5322,2.059a360.0119,360.0119,0,0,1-44.8944-14.4989,40.8428,40.8428,0,0,0-5.0649-1.6751c.6167-.96.924-1.7852.5292-2.4621-1.2037-1.9345-7.7886-7.21-10.22-8.0633a2.8877,2.8877,0,0,0-3.0475.7038,8.2192,8.2192,0,0,0-1.8084,2.948,7.294,7.294,0,0,0-.8874,2.7236c-.0017,1.0043.4886,2.3876,1.931,4.7161a35.5263,35.5263,0,0,0-9.1885,7.8492,39.135,39.135,0,0,0-8.7743,20.8034c-1.0136,9.1328-.4716,13.79.62,15.2036,1.1679,1.4187,3.1289-.43,6.247-4.1538,3.1557-3.7314,6.961-9.85,10.5055-14.86.9087-1.2639,1.7681-2.4594,2.5546-3.5535.7679-1.1138,1.5812-2.0942,2.2178-2.98,1.2734-1.7708,2.2568-3.01,2.5669-3.5227a17.024,17.024,0,0,0,1.5308-3.6089,40.1223,40.1223,0,0,0,6.2939,2.2469c14.0495,3.9365,29.5354,8.672,46.0787,13.0568l-.5563,2.1526c8.9925,2.5885,17.5917,4.7174,26.2341,6.3591l3.2381.6038,3.2659.5208c2.1607.3736,4.3833.6088,6.5782.9023,1.1071.1267,2.2314.2171,3.3478.3269,1.1138.1156,2.24.2069,3.3856.2577,1.1586.0568,2.24.1453,3.4691.1742q1.8861.0171,3.7809.0346a76.0506,76.0506,0,0,0,15.3494-1.6493,52.975,52.975,0,0,0,15.0723-5.7384c9.7033-5.5434,17.6077-15.0587,23.1832-27.099l1.3508-2.9513,1.1357-2.7259q.2782-.6776.5544-1.35l.4877-1.2848q.4846-1.2831.9618-2.5465,1.7867-5.0269,3.1856-9.7118c1.8663-6.2415,3.3329-12.0321,4.631-17.466,2.5478-10.8508,4.4543-20.2959,6.1218-28.8659,2.1-10.8739,3.8011-20.3629,5.2882-29.4023,2.5413.0248,5.1432-.0981,7.7715-.2982a37.236,37.236,0,0,0,14.7146-4.7871c.16.18.32.3543.4791.5186,3.6618,3.8425,7.734,7.9842,12.4165,12.5354q3.5071,3.4164,7.4685,7.17l8.26,8.0227q4.3863,4.21,9.2893,8.9165,4.7688,4.7768,10.0886,10.1051c1.7613,1.7862,3.6406,3.5857,5.4492,5.4986q2.6851,2.8864,5.517,5.93l5.8326,6.2615,5.7593,6.8141q2.1132,2.4856,4.2035,4.9438,1.933,2.5416,3.8476,5.0582l3.8374,5.0091c.3151.4181.6486.8255.9484,1.2516l.87,1.2944,1.7393,2.5831c2.2878,3.4593,4.7386,6.7968,6.7429,10.42q1.5767,2.6772,3.1469,5.3431L511.87,463.71l1.4426,2.7695c7.8736,14.6425,14.4752,30.33,20.9959,47.0567l1.873-.7415q3.0349,7.4923,5.9881,15.0267,2.5983,6.6409,5.0554,13.3137c1.6536,4.4407,3.32,8.8658,4.8884,13.3107.2828.7965.5648,1.5221.8471,2.2116-1.4562.4474-2.5156.9568-2.628,1.8766-.2782,2.2774,1.9843,10.1759,3.4288,12.226s3.9064,1.1217,5.7266.0679,2.8466-.8925,3.6848-6.1544a49.1356,49.1356,0,0,0,31.3753-4.2431C609.4855,553.021,609.2652,551.1971,600.0261,549.303Z" transform="translate(-182.201 -9.1714)"/></g></g></svg>