<svg xmlns="http://www.w3.org/2000/svg" viewBox="0 0 289.565 592.6162"><defs><style>.cls-1{isolation:isolate;}.cls-2{fill:#fff;stroke:#231f20;stroke-miterlimit:10;opacity:0.4;mix-blend-mode:overlay;}</style></defs><g class="cls-1"><g id="Layer_1" data-name="Layer 1"><path class="cls-2" d="M405.3088,298.4552c-2.59-4.4936-10.1476-11.2558-13.2449-14.276-3.0957-3.0207-8.5224-3.463-19.514-1.7077-5.1705.8259-10.9676,1.3434-14.9823,2.9924-.0289-.0147-.0545-.0306-.0836-.0452-10.2921-5.2181-23.913-12.6959-38.2636-21.6024a256.5453,256.5453,0,0,1-21.2579-14.5231c-1.73-1.2857-3.2428-2.65-4.8311-3.9727l-2.1386-2.0179a10.9046,10.9046,0,0,1-.9452-.9911l-.8395-.93a5.8053,5.8053,0,0,1-.741-.94l-.6934-.9612a12.09,12.09,0,0,1-.65-1.0654l-.7653-1.2887c-.5175-.8334-1.0252-1.8257-1.5358-2.7312-.5069-.932-1.0244-1.8263-1.5137-2.7926-3.9836-7.5686-7.613-15.2848-10.8955-22.5513q-.5317-1.198-1.0511-2.3779a30.3109,30.3109,0,0,0-2.5812-15.8793,38.4618,38.4618,0,0,0-3.5564-5.6395c-.954-2.0879-1.9863-4.3049-3.0457-6.7743-7.2453-16.8886-10.499-24.0738-20.2295-27.0813-1.9368-.5986-3.5787-1.0111-5.02-1.3381l-.0809-.1113a1.9722,1.9722,0,0,0-1.2526-.183l.0015.0018c-4.5754-.9688-6.85-1.1907-9.7552-4.4794-2.4425-2.7646-4.2038-6.9967-5.5377-11.3611,7.0083.7447,13.6428.4078,18.7284-1.2281,3.89-1.2515,8.8087-5.6208,12.38-11.843a71.6187,71.6187,0,0,0,21.82-16.5892c-.62-.7544-5.143-5.5652-5.74-6.6222a21.5992,21.5992,0,0,0,5.9273,4.5343,21.6124,21.6124,0,0,0,3.8152-5.8314A14.38,14.38,0,0,1,274.3,93.5a9.0886,9.0886,0,0,0,3.3757,1.89c1.4707-2.1058,2.4421-4.98,3.8631-7.7711-6.5895-4.5094-10.75-9.1013-16.4906-16.2337,5.52,4.1451,13.1239,7.9426,18.8648,8.4111-10.8739-6.37-21.7635-16.1878-24.9991-25.1622-2.9526-8.1889-2.1173-20.0576-13.6539-27.4576-5.5419-11.27-14.2623-12.8262-15.9442-12.92-1.9175-2.4064-10.0756-11.7012-35.48-8.585s-41.4572,21.49-46.4721,32.8051c-3.5647,8.0429-3.1411,20.04-1.6343,28.8682-.8439,2.9061-1.5432,5.5912-2.13,7.8333-2.3817,9.1009-11.9343,20.82-19.0062,29.6806,4.4467-2.5884,9.9751-10.0454,16.4194-19.6207-4.91,11.1012-15.374,23.4742-20.5839,28.826,5.41-2.85,13.9551-11.64,21.4067-23.1462-2.5253,7.5229-14.0317,24.56-16.3945,26.8043,2.1047,3.3131,19.2637,13.7385,22.7507,14.9379a89.0138,89.0138,0,0,1,6.78-12.5481,44.9058,44.9058,0,0,0-.844,14.1533c5.642,2.2046,12.0819,2.5546,17.639,2.2277.2935,1.3233.6015,2.5475.9289,3.6183,7.2834.8685,11.5658-1.0965,11.5658-1.0965,2.58.7211,10.5859,3.2045,15.6777-.5345a73.7136,73.7136,0,0,1-15.4-19.1155,47.5231,47.5231,0,0,0,14.7774,9.1616,91.6822,91.6822,0,0,1,.7049,12.7876c-.0361,1.12-.1089,2.1615-.2242,3.1073-.58,4.751-3.6757,8.1019-7.5736,11.0159a2.2039,2.2039,0,0,0-.7844.5744c-3.5478,2.5386-7.6349,4.7849-11.0773,7.404-.4445.0922-.887.2049-1.3255.3409-3.5773,1.1189-6.9424,3.7121-9.5174,8.3087-1.1808,2.1458-5.7056,11.93-12.7712,25.8485-3.5754,6.9811-7.6825,15.0008-12.0957,23.6174-2.2207,4.3378-4.5234,8.8374-6.8186,13.5313-1.1424,2.3586-2.2962,4.7318-3.4,7.2473a44.3666,44.3666,0,0,0-2.9685,8.2195q-.344,1.794-.6886,3.5935a15.634,15.634,0,0,0-.27,1.7749l-.2,1.74c-.116,1.1521-.3,2.3154-.3581,3.4549l-.2116,3.4224c-.25,4.5519-.276,9.035-.2913,13.47.0145,8.8573.1522,17.4993-.0449,25.7416-.2809,16.4755-2.079,31.3168-4.8953,42.0938a16.9084,16.9084,0,0,0-.3847,2.4213c-2.2363,2.9714-4.2826,8.0682-4.6675,16.6242-.1055,2.3392-.253,6.108-.4259,9.3573a5.3429,5.3429,0,0,0,1.6767,4.3657,9.5846,9.5846,0,0,0,2.5257,5.373c2.2925,2.822,3.5836,6.0274,6.0869,7.5434a18.9953,18.9953,0,0,0,1.6755,1.8919c1.5246,2.4526,2.3463,3.0441,8.1981,9.32s8.4609,9.2238,9.996,7.9351c1.6619-1.3948.4978-5.296-1.5666-7.8606a21.2318,21.2318,0,0,0-1.8553-2.0438c4.7674-.0236,7.968.9562,7.4866-.9269-.4282-1.6754-1.6517-3.0065-6.3889-3.7378a18.1426,18.1426,0,0,1-4.8847-1.0112,5.266,5.266,0,0,1-.4934-.3349,6.1873,6.1873,0,0,0,1.1608-.4935c4.6383-2.5481,12.1456-4.1782,11.0873-6.2084s-3.5675-2.7381-6.289-2.1175-7.0135,2.2153-7.6543,2.25a2.1427,2.1427,0,0,1-.7682-.1735c-.0082-.1673-.0191-.3242-.025-.5.0508-1.653.165-3.2108.3283-4.6728a30.3568,30.3568,0,0,1,6.0954-2.24c2.7586-.5367,3.2906-3.0041.5805-4.321-1.1753-.5709-3.2683-.4718-5.4318-.1364a18.2616,18.2616,0,0,1,2.9425-6.5193c1.0919-1.3254,4.8434,1.2179,5.9262,2.9227,2.2984,3.6214,8.0448,7.74,11.31,5.5338,2.6132-1.7657-1.1442-4.1608-4.0134-6.13-2.6247-1.8023-6.68-8.5259-8.058-12.3154-1.2519-3.4423-6.4474-10.0841-11.8934-13.3937,2.0536-11.3785,4.1341-26.0257,5.4472-41.8767.7536-8.397,1.3433-17.1444,2.15-25.6834.2264-2.1029.42-4.2546.6791-6.3285l.4054-3.088.2027-1.543.2534-1.48.5083-2.9445c.1588-.9921.4181-1.8492.6167-2.7763l.3121-1.3422.15-.6482.1893-.549q.375-1.0965.7093-2.1847a14.4593,14.4593,0,0,1,1.0648-2.3406c.1879-.3828.4138-.7465.63-1.112l.3194-.5487c.0973-.1744.2124-.3653.3571-.6008.558-.9209,1.1027-1.8476,1.72-2.8165.5921-.9531,1.1985-1.9124,1.8316-2.8841,2.4939-3.8645,5.0974-7.7238,7.6461-11.4733l14.4253-21.0451q2.4462-3.5775,4.6424-6.8569c.9476,1.9154,1.9747,3.911,3.1094,6.0146,2.3216,4.3035,4.891,8.637,7.4,13.0216a4.0308,4.0308,0,0,1-.53-.0959c0,.0027,5.28,10.4423,6.8643,13.7767,1.9236,4.0447,8.52,28.0275,7.2422,41.5586-1.2606,13.317-4,23.225-5.0154,29.2113l.0028,0a50.8016,50.8016,0,0,0-2.073,14.7861,20.1967,20.1967,0,0,0-.7046,5.04c-.0124,10.426.6142,22.9,2.126,38.851.7467,7.9759,1.7411,16.8088,2.917,26.6554,1.1547,9.83,2.6183,20.6862,3.6578,32.4845.1755,2.0955.3774,4.1885.4865,6.2276.1323,2.05.2876,4.0975.3328,6.0936q.0567,1.5066.1131,3.0066c.0375,1,.0093,1.9766.0187,2.9647q.0031,1.4794.006,2.9535l-.1753,2.728a79.5087,79.5087,0,0,1-4.92,21.9735c-5.4482,14.6944-13.431,29.1058-22.2865,43.9347l1.6723.9874c-7.177,12.44-14.7191,24.7527-22.3694,36.8019a39.6914,39.6914,0,0,0-2.0352,3.55c-.4123-.6248-.858-.9888-1.4545-.8687a36.4,36.4,0,0,0-10.7665,6.4726c-1.7256,1.9727-.2826,4.4088,1.1032,6.0875a6.6669,6.6669,0,0,0,2.0268,1.8648c.8524.386,2.1358.5122,4.676-.0394.0885.4545.2083,1.0694.3505,1.8a16.0105,16.0105,0,0,0,.7013,2.56c.3329.9443.7438,2.0018,1.254,3.1534a28.1412,28.1412,0,0,0,2.0526,3.4718,21.6466,21.6466,0,0,0,2.9862,3.5791,25.73,25.73,0,0,0,1.866,1.7765q1.0362.8059,2.1876,1.61c.7712.5269,1.5664,1.0834,2.4263,1.572q1.3152.6753,2.7477,1.3158c.9574.4178,1.9416.8539,2.9834,1.21q1.5839.4734,3.2773.8781l3.1839.7276c1.0109.1587,1.957.29,2.838.4054,1.7623.2285,3.2669.3766,4.5317.448,2.55.0423,4.1406-.2257,4.9219-.7165,1.58-1.0081-.1127-2.9922-3.2769-6.1687-.7807-.8351-1.6974-1.7055-2.6872-2.6q-.7638-.6687-1.5371-1.3457l-.8-.6755-.7975-.7415c-1.0706-.9892-2.1667-1.9713-3.2473-2.9218-1.0816-.9488-2.0869-2.0495-3.0785-2.99-.4888-.4893-.979-.9332-1.43-1.4155q-.6666-.7512-1.2821-1.4441-.62-.6887-1.178-1.3092a12.3067,12.3067,0,0,1-1.0254-1.2135c-1.2226-1.6073-2.151-2.6515-2.5019-3.0859a11.5473,11.5473,0,0,0-2.73-2.2558c-.1259-.0977-.2686-.196-.4023-.2939a25.983,25.983,0,0,0,4.3629-6.7259c3.682-7.3229,7.88-15.024,12.4443-22.9748,2.6906-4.693,5.5261-9.476,8.436-14.3284l1.7071,1.0079c2.201-3.5342,4.3328-6.9571,6.4181-10.3054l3.0818-5.01,2.9893-5c2.0037-3.2766,3.8731-6.6785,5.7978-10.0042.9452-1.6853,1.8447-3.4294,2.7739-5.1456l1.3882-2.5895c.4508-.8794.8766-1.79,1.3183-2.687a115.5762,115.5762,0,0,0,9.1987-23.9793,65.5734,65.5734,0,0,0,1.4448-7.0459c.4983-2.4974.6538-4.6947.9474-7.0676.15-1.18.2528-2.3562.3382-3.5389q.1432-1.779.2894-3.5963c.18-2.4169.27-4.84.419-7.3467.4976-12.9726.3393-23.9486.3164-33.7065-.0463-9.7049-.0869-18.2533-.1239-26.0238-.0137-7.6672-.0425-14.5934-.1067-21.1709a83.4979,83.4979,0,0,0,9.418-1.1492c5.4346-.9329,10.8978-3.6817,15.84-7.3.1792.0951.3565.1864.53.2707,8.7549,4.2483,19.4119,8.872,32.86,15.081,6.7064,3.12,14.1219,6.64,22.1055,10.92,1.99,1.0738,4.024,2.1885,6.0659,3.3721l2.8419,1.6624c.84.4832,1.6825.9967,2.5366,1.5256a71.8143,71.8143,0,0,1,10.4257,7.66,24.5284,24.5284,0,0,1,6.0264,7.6748,9.418,9.418,0,0,1,.8729,4.6644,10.7482,10.7482,0,0,1-.4933,2.2859l-.6379,2.2584c-.793,3.0446-1.847,6.0315-2.8868,9.08-.4986,1.5222-1.1761,3.0739-1.7661,4.6241-.6269,1.5694-1.1662,3.04-2.02,4.8715-6.153,14.0371-13.8514,27.7208-22.0225,42.3143l1.6249.8922c-6.2882,11.7381-12.4163,23.6562-18.1026,35.6738-1.031.0208-1.8.2307-2.1308.8652-1.07,2.0509-1.7484,10.3134-1.115,12.7635s3.2926,2.45,5.3883,2.1034c2.0945-.3494,3.0082.166,5.6665-4.5077a49.6984,49.6984,0,0,0,31.125,7.12c16.6952-1.6593,17.1558-3.4069,9.1349-8.5416-8.0253-5.1051-26.8428-10.4444-29.4108-10.7839a20.2391,20.2391,0,0,0-6.6356.395,255.3413,255.3413,0,0,1,14.5831-30.4185l1.68.9227c7.8926-13.4892,15.3953-25.1714,22.6657-38.175q1.3584-2.4418,2.7346-4.9155,1.4711-2.8969,2.97-5.8479l1.5279-3.0084c.52-1.0043.9561-2.0972,1.4458-3.1549q1.4446-3.216,2.9317-6.526a11.8727,11.8727,0,0,0,.63-1.6785q.279-.8468.56-1.7.5641-1.7129,1.1385-3.456.5764-1.7514,1.1636-3.5353a14.5107,14.5107,0,0,0,.6189-3.6865,20.8048,20.8048,0,0,0-1.1879-7.6628,35.9635,35.9635,0,0,0-3.4911-7.2576,72.0978,72.0978,0,0,0-13.74-15.5984c-2.5227-2.2228-5.0883-4.3016-7.6564-6.2605q-1.7706-1.33-3.4881-2.6208-1.5462-1.1282-3.0462-2.2229c-8.0282-5.7471-15.2561-10.2862-21.9138-14.2666a350.5272,350.5272,0,0,0-31.5066-16.7249,9.44,9.44,0,0,0,.334-4.1913c-.4408-2.2336-1.197-5.1578-2.0989-8.2778l.0014-.0011c-.9527-4.6309-5.2665-18.5236-6.715-23.103s-4.48-19.74-4.6868-27.2792,2.0036-21.1664,4.1817-27.8887c.2446-.7561.4833-1.4585.7176-2.1243q2.8361,4.7781,5.8726,9.6779c1.2594,1.9485,2.47,3.9253,3.8134,5.8814.67.98,1.2911,1.9666,2.0052,2.9463l1.0577,1.4705c.3771.5054.7089,1.04,1.14,1.53l1.27,1.4631.6366.7277c.2219.2342.4662.4439.6987.666l1.4022,1.3a16.795,16.795,0,0,0,1.4108,1.2222l2.8772,2.2807,2.9417,2.1027c3.9471,2.7277,7.9592,5.24,11.9726,7.6084,2.0072,1.183,3.9956,2.3676,5.9959,3.4818,1.9911,1.1326,3.9615,2.26,5.9312,3.3307,7.8479,4.3451,15.3963,8.37,22.2767,12.0563,6.8729,3.7008,13.0775,7.0613,18.247,10.0426a16.7663,16.7663,0,0,0,1.7063.856,24.4216,24.4216,0,0,0,5.774,5.0807c3.6359,2.7116,9.2905,4.7816,12.6017,5.7021,3.6814,1.0231,8.2146,1.4908,11.4861,2.4217-.0566.0973-.1154.2017-.1624.2686-1.1011,1.5708-1.5684,2.6607-3.2526,3.4151-2.8328,1.2682-4.4877,2.55-4.0072,3.97.5392,1.5944,3.6531-.0637,7.281-1.05.147-.04.2755-.08.4056-.12a5.9875,5.9875,0,0,1-.6418.4484c-3.0169,1.8282-4.656,3.4891-3.772,4.9737.9922,1.6664,4.2487-.6333,8.2569-2.2756a7.2067,7.2067,0,0,0,1.8081-.9845c-1.9951,3.63-2.687,6.3906-.9892,7.7361,1.9767,1.5662,4.1361-2.9772,7.4572-7.089a24.7115,24.7115,0,0,0,2.2175-3.1889c.0838,4.3508.9868,7.5727,3.1935,7.7562,2.7576.23,1.9852-7.3473,3.05-10.8471C406.8635,306.7363,407.9,302.9478,405.3088,298.4552Zm-12.5272,14.2" transform="translate(-117.8671 -4.5392)"/></g></g></svg>