<svg xmlns="http://www.w3.org/2000/svg" viewBox="0 0 327.5311 648.3629"><defs><style>.cls-1{isolation:isolate;}.cls-2{fill:#fff;stroke:#231f20;stroke-miterlimit:10;opacity:0.4;mix-blend-mode:overlay;}</style></defs><g class="cls-1"><g id="Layer_1" data-name="Layer 1"><path class="cls-2" d="M559.4572,446.9125a58.4044,58.4044,0,0,0-2.5932-19.1966c-.4922-1.4538-1.1443-3.27-1.8252-5.1087-.41-1.1616-.8224-2.0514-1.21-2.9911l-1.1484-2.7263-1.1373-2.6885q-.5836-1.2713-1.1581-2.5233c-1.5371-3.3252-3.0293-6.5741-4.5343-9.5626-1.4893-3.0361-2.9369-5.9862-4.3748-8.7587-1.4328-2.7862-2.8122-5.5387-4.18-8.12-5.4466-10.448-10.3092-19.4547-14.764-27.6715-8.8923-16.38-16.171-29.3764-23.4664-42.2592a23.6374,23.6374,0,0,0-1.8677-2.8276,6.5205,6.5205,0,0,0-.1969-1.2083c-.6146-2.192-1.5979-5.0479-2.7418-8.0875l.0014-.0012c-1.3128-4.5419-6.7032-18.0535-8.5064-22.5053s-6.0149-19.3282-6.8119-26.8275.3371-21.2585,1.9814-28.131a49.5482,49.5482,0,0,1,4.35-12.317c1.0794-2.1382,5.2788-11.7179-1.584-24.7173a38.4681,38.4681,0,0,0-3.9879-5.3431c-1.1148-2.0066-2.3179-4.1358-3.5677-6.5145-1.802-3.43-3.3867-6.42-4.8691-9.0618,3.8923-2.69,10.0636-7.0636,17.7892-12.65,5.8163-4.2125,12.5028-9.1134,19.7074-14.55,7.1953-5.4626,14.933-11.381,22.6848-18.0786.9624-.8649,1.9375-1.6785,2.897-2.5928,1.0661-.97,2.0874-1.9331,3.0719-2.9469a24.8468,24.8468,0,0,0,5.0822-6.7176,37.0789,37.0789,0,0,0,2.6678-8.0418,77.8847,77.8847,0,0,0,1.3595-8.052,220.6488,220.6488,0,0,0,1.0805-30.6775c-.418-17.965-1.9755-34.3359-3.1846-46.9979,3.4653-3.45,10.8319-15.7393,10.9761-21.5856.0976-3.96-1.51-10.9171-2.5277-16.6828-.0016-.0091-.0085-.0133-.01-.0221-.0158-.1038-.0269-.2157-.0446-.3164-.5172-2.9586-5.43-3.9494-6.297-.0372-.0417-.3345-.0847-.6642-.1358-.9566-.5928-3.3893-5.914-4.4441-6.8517.0452-.0164-.1019-.03-.22-.0473-.3179-.6937-3.9659-7.8189-5.0537-7.8875,1.4343-.0758-.3768-.1559-.734-.2431-1.0541-.9806-3.5976-8.5486-3.3955-7.9436,2.6261.177,1.2014.335,2.313.4756,3.3273-1.9258,1.7008-3.353,5.8707-4.1431,7.3757-1.0606,2.02-2.3839,4.57-2.0072,6.73s5.48,7.04,9.7646,12.65l.0108.013a27.67,27.67,0,0,0,7.4,6.8782,287.8,287.8,0,0,1,2.3194,44.9064,199.6628,199.6628,0,0,1-2.4471,27.7561c-.3746,2.2744-.8588,4.4674-1.374,6.599-.0628.2688-.1416.5174-.2112.7768l-.1738.5894c-.1034.3808-.2388.8335-.3822,1.2378-.2643.8368-.5763,1.6527-.9073,2.4563a13.7533,13.7533,0,0,1-2.7351,4.3628,33.1793,33.1793,0,0,1-3.8689,3.2643l-.552.4232c-.2121.1668-.4288.3334-.6612.5l-1.3615.9992c-.89.6667-1.8414,1.3236-2.77,1.9792-1.86,1.31-3.7636,2.5979-5.6649,3.8576-3.7931,2.5276-7.6123,4.9461-11.3251,7.27-7.4434,4.64-14.5272,8.8777-20.8613,12.6194-12.6792,7.4764-22.3489,12.9906-26.4557,15.5256-.0585.036-.1119.0761-.17.1124-.4765-.1389-.9574-.2737-1.4644-.3877-1.9778-.4449-3.6471-.7274-5.11-.94l-.0892-.1045a1.9707,1.9707,0,0,0-1.2633-.0842l.0015.0015c-4.6371-.6069-6.9219-.65-10.0764-3.7-2.5967-2.5114-4.6532-6.4763-6.3078-10.6268a39.4693,39.4693,0,0,0,11.68-2.1835c3.8228-1.4423,8.5191-6.0493,11.7784-12.44a71.6191,71.6191,0,0,0,20.9724-17.6492c-.6568-.7228-5.4123-5.3038-6.06-6.33a21.6,21.6,0,0,0,6.1447,4.2355,21.6089,21.6089,0,0,0,3.5216-6.0133,14.3684,14.3684,0,0,1-3.0678-2.5987,9.0861,9.0861,0,0,0,3.4651,1.7209c1.3648-2.1761,2.1925-5.0944,3.4735-7.9526-6.8044-4.1779-11.1869-8.5584-17.2735-15.3977,5.7187,3.8668,13.5006,7.2833,19.258,7.467-11.1759-5.8235-22.5381-15.0906-26.2138-23.8939-3.3545-8.0328-3.1076-19.9282-14.9963-26.748-6.093-10.982-14.88-12.1047-16.5644-12.1155-2.0341-2.3085-10.6422-11.1881-35.8613-6.8183s-40.3428,23.516-44.7915,35.0651c-3.1623,8.2094-2.1454,20.17-.2034,28.9134-.6991,2.9443-1.2646,5.6608-1.74,7.9291-1.9284,9.2079-10.8893,21.3855-17.5138,30.5851,4.313-2.8053,9.4657-10.5267,15.4281-20.4093-4.3548,11.3306-14.1933,24.2063-19.1319,29.8093,5.2621-3.1139,13.3617-12.3164,20.2348-24.1773-2.15,7.6389-12.7987,25.2243-15.0479,27.583,2.2663,3.2048,19.92,12.7681,23.4622,13.7934a89.0518,89.0518,0,0,1,6.1512-12.8681,44.91,44.91,0,0,0-.1424,14.1776c5.7442,1.9225,12.1933,1.9534,17.7274,1.3519.3586,1.307.7268,2.5144,1.1069,3.5676,7.3175.5072,11.4975-1.6673,11.4975-1.6673,2.6129.5925,10.7315,2.6766,15.6322-1.31A73.7137,73.7137,0,0,1,387.596,123.254c5.4819,4.7992,13.6184,8.3978,22.286,10.5349a85.5234,85.5234,0,0,1,1.38,10.96c.0519,1.1195.0608,2.1634.02,3.1153-.2051,4.782-3.0291,8.3654-6.6864,11.5763a2.2025,2.2025,0,0,0-.7367.6339c-3.2364,2.724-7.0018,5.2128-10.1692,7.988-.0937-.0168-.1783-.0418-.273-.0578-2.557-.45-13.1278-1.3241-28.2329-2.7257-7.5461-.72-16.2367-1.577-25.5586-2.8031-4.6636-.6083-9.47-1.3381-14.3244-2.24-1.2038-.2087-2.4928-.4882-3.4939-.6836-1.0821-.2014-2.19-.465-3.2972-.7212a61.7318,61.7318,0,0,1-6.6848-1.9359l-1.6587-.6335-1.6146-.7564a13.4419,13.4419,0,0,1-2.9554-1.9911c-.8283-.8456-1.6032-1.7539-2.4162-2.64-.3954-.452-.8225-.8837-1.1958-1.3578l-1.1123-1.4358c-.7342-.9671-1.5143-1.9159-2.2223-2.9193L296.59,142.118c-.3626-.552-.7472-1.0878-1.0927-1.6554l-1.0221-1.7157-2.047-3.44a227.0108,227.0108,0,0,1-13.3775-28.9657c-3.77-9.6878-6.8758-19.1692-9.4829-27.8872-2.5931-8.6525-4.6053-16.5882-6.0787-23.3649a30.5064,30.5064,0,0,0,4.7541-8.4781l.0072-.0169c2.631-6.98,6.3119-13.4717,6.036-15.7717s-2.3906-4.48-4.078-6.2013c-1.2573-1.2831-3.97-5.0695-6.4359-6.2053-.1662-1.0692-.3442-2.2422-.53-3.5117-1.2185-6.2783-8.9392-4.1818-8.8377-.2427.0084.3273.0359.6907.07,1.0652-2.0623-6.476-8.9165-3.1911-8.4141,1.0222.0123.104.0344.2282.0488.3363-2.314-4.2583-7.3788-1.573-6.9481,2.0376.0372.3116.094.6584.1535,1.01-2.0672-3.696-6.7378-1.1994-6.3618,1.9522.0128.1072.0355.2237.051.3335.0008.01-.0049.016-.0037.0258.7229,6.1449,1.2117,13.675,2.5144,17.6528,1.5428,4.71,9.0482,12.2019,14.3111,16.2431a12.4212,12.4212,0,0,0,.4148,2.0919c1.92,6.5611,3.9782,14.2995,6.31,22.8634,2.3062,8.5644,4.857,17.9532,7.84,27.8172a318.5029,318.5029,0,0,0,10.738,30.6817c.5625,1.3089,1.0556,2.6231,1.679,3.9339l1.8379,3.9394.9236,1.9728,1.039,1.9686c.8223,1.5437,1.6906,3.1617,2.5325,4.6185.8785,1.4684,1.8351,2.8871,2.7518,4.3375a44.97,44.97,0,0,0,2.9027,4.2357q1.5561,2.0326,3.1488,4.0355c.622.5676,1.1853,1.22,1.7917,1.8128l1.9934,1.5767c5.5222,3.9035,11.8141,6.48,18.125,8.6571l4.4906,1.4791q1.9232.6024,3.823,1.1973c2.5072.7459,4.9809,1.4721,7.3872,2.1306,9.64,2.6582,18.5019,4.7552,26.3725,6.572,15.7287,3.5812,27.4073,6.0035,32.4994,6.8869a20.7376,20.7376,0,0,0,2.8972.2652,140.9232,140.9232,0,0,0,9.6706,17.1639c2.6519,4.1081,5.5533,8.2267,8.398,12.4011a4.0305,4.0305,0,0,1-.5357-.0541c0,.0028,6.0824,9.9962,7.9237,13.196,2.235,3.8812,10.6924,27.2728,10.48,40.8624-.2122,13.375-2.1654,23.4674-2.7086,29.5149l.0028-.0007c-.9452,5.28-1.5543,10.5382-.8006,15.7073a20.8081,20.8081,0,0,0-.3709,3.7795c-.0226,10.7738.4967,23.6272,1.0017,40.1.2409,8.2334.4618,17.37.4555,27.5609a309.5762,309.5762,0,0,1-1.6187,33.5118,120.2019,120.2019,0,0,1-2.0445,12.4348,38.2022,38.2022,0,0,1-1.643,5.3953,17.117,17.117,0,0,1-2.7367,4.8857l-1.1878,1.5583a16.8526,16.8526,0,0,1-1.24,1.5224q-1.3652,1.5132-2.7254,3.02c-1.0221,1.0766-2.1526,2.1233-3.2243,3.1875-1.0788,1.0634-2.164,2.1256-3.3385,3.1493-2.2973,2.07-4.5865,4.146-7.0149,6.1489l-3.6021,3.028-3.6974,2.9769c-9.9024,7.9256-20.3189,15.601-31.3589,23.33l1.1875,1.67c-12.018,8.7241-24.2116,17.2711-36.4192,25.5615a1.583,1.583,0,0,0-1.0021-.9485c-2.2247-.562-10.3448.6916-12.56,1.8672s-1.6029,3.7348-.786,5.6729.5282,2.9362,5.6432,4.4281a49.1392,49.1392,0,0,0,.2719,31.66c5.4759,15.75,7.313,15.76,10.3516,6.8318s3.8832-28.2577,3.6282-30.82a19.5792,19.5792,0,0,0-1.77-6.0141c.9052-.66,1.8805-1.427,2.9577-2.3364,10.5238-8.819,22.7641-17.95,35.8991-27.1624l1.2153,1.709c11.3985-7.648,21.7285-14.5473,32.1292-21.7216,2.6012-1.7883,5.2071-3.592,7.83-5.4844q1.9709-1.4039,3.9607-2.8214,1.9866-1.4817,3.9993-2.9831c2.6957-1.931,5.4021-4.2279,8.1927-6.419l4.4721-3.9914,1.1521-1.0882,1.1009-1.15q1.108-1.1573,2.2312-2.33a32.9276,32.9276,0,0,0,4.1692-5.497,54.5344,54.5344,0,0,0,3.2508-6.4588c.9746-2.2779,1.8375-4.6366,2.64-7.1355q.2825-.8969.568-1.8025c.1879-.5664.3388-1.1184.502-1.6788.3114-1.1141.6731-2.2623.9516-3.384,1.84-6.9375,3.097-13.3227,4.1346-19.3152,1.0285-5.9895,1.8148-11.5789,2.4884-16.851,1.3087-10.5336,2.151-19.7916,2.7517-28.2307.6751-9.7918,1.0527-18.4839,1.18-26.7473a83.2967,83.2967,0,0,0,9.3512-1.8909,32.7773,32.7773,0,0,0,8.9842-3.9365c4.5776,7.6474,9.9906,16.0629,16.3942,25.6082,5.282,7.8966,11.2419,16.5435,17.8221,26.21q4.9535,7.2478,10.2638,15.2852c3.4721,5.3569,7.1707,11.0425,10.4932,16.9231.7145,1.2823,1.5151,2.6379,2.1274,3.7757q.82,1.6718,1.682,3.3144a33.4284,33.4284,0,0,1,2.89,10.66l.1745,1.378.09.6936.0489.7733q.102,1.55.2038,3.0954c.0543,1.04.0529,2.11.0838,3.1637.0269,1.0564.0562,2.1127.0242,3.1922a224.5364,224.5364,0,0,1-1.923,26.1045,366.0931,366.0931,0,0,1-11.115,53.3673l2.2275.6158a450.497,450.497,0,0,1-15.793,48.4459c-.346.8781-.642,1.6968-.9127,2.4865a1.8759,1.8759,0,0,0-1.8022.3084c-1.6192,1.6254-4.69,9.2464-4.81,11.7515s2.3919,3.2858,4.4754,3.5733c2.0465.2825,2.7755,1.0088,6.4921-2.41.1506.0342.3024.07.4489.0963a48.9579,48.9579,0,0,0,27.1052,15.6624c16.3368,3.3378,17.2845,1.7637,11.1609-5.4093s-22.31-17.7726-24.6429-18.8624a17.5645,17.5645,0,0,0-4.6925-1.3548c.1543-.5043.3085-1.0148.4635-1.5638,4.2458-15.1532,9.19-31.8779,14.1854-49.4952l2.2833.6313c5.6112-18.4678,10.0075-34.9255,13.8305-52.3951,1.8825-8.7567,3.6584-17.735,4.9118-27.68q.2269-1.8717.4576-3.7715.1719-1.9405.3468-3.9123c.1345-1.3029.2053-2.6635.2622-4.0473q.0483-1.0338.0969-2.077c.0135-.3534.0378-.6846.0422-1.0588Z" transform="translate(-232.4311 27.1186)"/></g></g></svg>