<svg xmlns="http://www.w3.org/2000/svg" viewBox="0 0 228.6965 669.0774"><defs><style>.cls-1{isolation:isolate;}.cls-2{fill:#fff;stroke:#231f20;stroke-miterlimit:10;opacity:0.4;mix-blend-mode:overlay;}</style></defs><g class="cls-1"><g id="Layer_1" data-name="Layer 1"><path class="cls-2" d="M527.6666,14.7393c-.0085-4.0968-1.9028-10.8153-3.1146-16.7489-.0082-.04-.0233-.071-.0333-.1087-.0429-.2883-.0874-.5735-.1416-.8411-.6193-3.0582-5.749-3.9512-6.5411.1363-.0526-.3463-.1064-.6876-.1676-.99-.6917-3.4151-5.9982-4.4144-7.053-.1211-.3062-2.7153-1.1258-23.8428-1.1846-24.8121-.2207-3.6568-6.0774-4.2962-6.6861.2189-.1632,1.21.0224,26.6884-.5353,26.9461-1.3624.63-6.2676-12.3844-10.924-22.8294-2.13-4.779-8.1016-2.2859-6.1359,2.53A253.2523,253.2523,0,0,1,493.42,2.98c.1291.5138.2224,1.0172.3008,1.5169-1.4026,2.0943-2.42,5.21-3.0509,6.4928-1.0406,2.1175-2.3386,4.7912-1.8895,7.0141.4109,2.0343,4.9758,6.3177,9.2624,11.3837a28.8618,28.8618,0,0,0,9.2363,8.4968,280.9229,280.9229,0,0,1-6.8956,44.48c-1.96,8.5666-4.3065,17.4627-6.9751,26.3212-1.3145,4.4342-2.7551,8.8485-4.2312,13.1693-.3773,1.0608-.7445,2.1706-1.1293,3.1831l-.5708,1.5437-.6041,1.4474c-.4145.9589-.7675,1.9334-1.2223,2.8709q-.6729,1.4058-1.3422,2.8045a93.4265,93.4265,0,0,1-6.2911,10.5378,113.0371,113.0371,0,0,1-7.3463,9.39,165.5927,165.5927,0,0,1-15.5766,15.4187c-5.0591,4.4235-9.7417,8.185-13.5772,11.2606-3.1512,2.5208-5.7276,4.5742-7.5364,6.061a21.6287,21.6287,0,0,0-3.732-1.5132c-1.9388-.5923-3.5822-.9994-5.0251-1.3217l-.0811-.1109a1.97,1.97,0,0,0-1.2531-.1789l.0013.0017c-4.5785-.9537-6.8536-1.1682-9.77-4.4473-2.4707-2.7782-4.2542-7.0489-5.6063-11.445a42.2658,42.2658,0,0,0,14.2631-1.19c3.9206-1.1509,8.95-5.3923,12.6807-11.52a71.621,71.621,0,0,0,22.2393-16.0226c-.6007-.77-4.9983-5.6957-5.5673-6.7677a21.6016,21.6016,0,0,0,5.8087,4.6852,21.6117,21.6117,0,0,0,3.9639-5.7314,14.3774,14.3774,0,0,1-2.864-2.8219,9.09,9.09,0,0,0,3.3261,1.9763c1.5243-2.0673,2.5691-4.9152,4.0615-7.6691-6.4712-4.6772-10.5121-9.3747-16.0676-16.6525,5.4119,4.2858,12.9152,8.2775,18.6423,8.8935-10.7065-6.647-21.34-16.742-24.3438-25.7967-2.741-8.2621-1.6009-20.1052-12.9432-27.7994-5.25-11.4089-13.9278-13.1888-15.6068-13.326-1.855-2.4549-9.7713-11.9565-35.2474-9.4945s-41.9961,20.4171-47.3,31.5991c-3.77,7.9486-3.6555,19.9523-2.3763,28.8166-.9184,2.8833-1.6864,5.5495-2.3307,7.7757-2.6148,9.0368-12.4655,20.5065-19.763,29.1821,4.5118-2.4732,10.23-9.7855,16.9186-19.192-5.1941,10.9713-15.9725,23.071-21.3183,28.287,5.4814-2.71,14.25-11.2771,21.9947-22.588-2.7178,7.4556-14.6585,24.1909-17.0784,26.3738,2.0188,3.3663,18.9042,14.2294,22.3591,15.5181a89.006,89.006,0,0,1,7.1008-12.37,44.91,44.91,0,0,0-1.2075,14.1268c5.5833,2.349,12.0119,2.8645,17.5756,2.6806.2593,1.33.5358,2.562.8356,3.6408,7.2587,1.0556,11.59-.7986,11.59-.7986,2.5608.7872,10.5,3.4756,15.6863-.1312a73.7107,73.7107,0,0,1-14.9029-19.5047c4.6082,4.69,11.4423,8.5717,18.969,11.3284a89.5375,89.5375,0,0,1,.6757,12.1481c-.0324,1.12-.1018,2.1618-.214,3.108-.5639,4.7529-3.6492,8.1139-7.5375,11.0408a2.2031,2.2031,0,0,0-.7819.5764c-3.698,2.6648-7.9873,5.0115-11.5118,7.7963a15.0716,15.0716,0,0,0-8.5848,6.2932c-1.1734,1.6583-5.4366,8.7648-11.7008,19.0938-3.1234,5.17-6.74,11.1412-10.6175,17.7011-3.8708,6.565-8.032,13.683-12.0368,21.3424q-.74,1.4491-1.4837,2.9086l-1.4839,3.0567c-1.0017,2.1659-1.9764,4.3414-2.7639,6.5827a22.4592,22.4592,0,0,0-1.5657,6.9132c-.034,1.1862.1361,2.38.2,3.563l.1381,1.7727.2565,1.7591c.177,1.1695.338,2.3361.5356,3.4915q.3537,1.6769.7059,3.347c.2139,1.0951.4837,2.1662.769,3.2276q.4128,1.5963.823,3.1826c1.2035,4.1825,2.4718,8.2633,3.8076,12.2007,2.6518,7.8831,5.3217,15.31,7.5185,22.16a183.3993,183.3993,0,0,1,5.0832,18.4563,11.1526,11.1526,0,0,0,.7937,2.4122c-2.3343,2.28-4.8158,5.9364-7.0134,11.7526-.7724,2.0436-1.9971,5.3425-3.0933,8.1733a4.985,4.985,0,0,0,.22,4.3578,8.9405,8.9405,0,0,0,.68,5.4971c1.2138,3.1675,1.4282,6.3844,3.208,8.4551a17.723,17.723,0,0,0,.9365,2.1638c.64,2.6172,1.1971,3.38,4.5644,10.6434s4.8252,10.6342,6.56,9.937c1.8784-.7545,1.9784-4.5514.8922-7.4245a19.818,19.818,0,0,0-1.0519-2.3508c4.234,1.3627,6.7876,3.16,6.9074,1.3509.1065-1.61-.5921-3.1451-4.58-5.1684a16.9333,16.9333,0,0,1-4.0377-2.3143,4.9576,4.9576,0,0,1-.34-.44,5.7725,5.7725,0,0,0,1.1725-.1008c4.8521-.9131,11.9819-.18,11.6326-2.287s-2.3685-3.4633-4.9617-3.7028-6.8619-.0712-7.44-.2262a2.0017,2.0017,0,0,1-.6307-.3769c.0414-.1507.0771-.293.123-.45.5248-1.451,1.0781-2.7992,1.6472-4.0482a28.3106,28.3106,0,0,1,6.0549-.217c2.6018.3246,3.7895-1.7088,1.7686-3.663-.8764-.8474-2.761-1.3668-4.7767-1.6974a17.0357,17.0357,0,0,1,4.5012-4.9265c1.3527-.8583,3.9411,2.4857,4.4063,4.3114.9872,3.8782,4.8872,9.1974,8.423,8.1892,2.8294-.8071.1929-4.0213-1.78-6.6-1.8042-2.36-3.4482-9.4983-3.5706-13.2585-.1442-4.4311-4.6109-15.5581-10.39-18.4039a9.48,9.48,0,0,0-.3849-2.3279c-.73-2.6734-1.6128-5.5063-2.4647-8.5752-.8906-3.0224-1.837-6.2343-2.8317-9.61-1.9677-6.7071-4.1371-13.9619-6.0894-21.4327-.4858-1.8664-.9748-3.7546-1.3973-5.6334q-.3285-1.4124-.66-2.8382-.2833-1.4081-.5692-2.8278c-.4158-1.9014-.6769-3.7642-.9838-5.6424-.1738-.9462-.2433-1.8581-.35-2.7812l-.1356-1.29c-.0369-.4043-.0952-.7842-.1017-1.1555-.0357-1.5074-.1653-2.9947-.06-4.48a20.1233,20.1233,0,0,1,.1369-2.2078,9.5282,9.5282,0,0,1,.6177-2.1282,30.1905,30.1905,0,0,1,2.009-3.9235c.3606-.63.7644-1.2325,1.14-1.8412l1.3713-2.1147c4.1665-6.34,8.8936-12.6164,13.375-18.4564,4.5048-5.85,8.8518-11.3125,12.7295-16.1972q1.6056-2.0165,3.0968-3.8943c1.519,3.3564,3.3443,7.0217,5.5347,11.0505,2.3357,4.2959,4.9192,8.6209,7.4421,12.9972a4.0218,4.0218,0,0,1-.53-.0941c0,.0026,5.3139,10.4249,6.9095,13.7541,1.9369,4.0384,8.6122,27.9994,7.3784,41.5346-1.217,13.3212-3.9234,23.238-4.9195,29.2276l.0028,0a60.6155,60.6155,0,0,0-1.9767,11.07,21.9085,21.9085,0,0,0-2.296,5.4132c-5.8,21.9548-12.196,52.9792-25.9212,105.8269-4.77,18.805-9.321,36.7468-13.84,54.5642-2.294,8.9257-4.6011,17.8621-7.09,26.8653q-1.8154,6.7783-3.77,13.63-1.9866,6.861-4.0157,13.8684l2.0983.6033c-3.9341,14.1518-8.0221,28.2771-12.1034,42.3119a21.7694,21.7694,0,0,0-5.5508,1.23c-12.17,4.3336-17.9231,12.9365-12.38,14.8987,3.49,1.2356,11.5437,2.048,19.2572,2.0036q.4385.1392.9252.2438a6.1417,6.1417,0,0,0,4.7352-.4463,48.3177,48.3177,0,0,0,6.5982-.8535c8.9205-1.9115,5.8133-6.013,3.9411-8.2749a30.5861,30.5861,0,0,0-5.2726-5.1516c.6731-3.3994,1.38-6.8781,2.1825-10.4167q1.6977-7.1074,3.6062-14.55c1.2257-4.96,2.7257-9.9794,4.1862-15.0824q.4013-1.38.8081-2.77l2.1392.615c11.2027-35.17,20.117-61.5491,35.5915-101.2985,5.09-12.9869,9.4331-24.4695,13.3236-34.743,1.8933-5.1748,3.6743-10.0427,5.3615-14.654q1.2511-3.4742,2.4353-6.7612l2.2141-6.4758c1.4162-4.2334,2.762-8.2567,4.0555-12.1236,1.3029-3.87,2.3725-7.68,3.4765-11.36.7488-2.5519,1.4626-5.0538,2.1621-7.54a70.8337,70.8337,0,0,0,12.7933-1.2662,28.7623,28.7623,0,0,0,4.3043-1.13c1.8663,19.3133,4.6266,44.1219,7.8955,77.9755,3.6332,37.5957,7.9439,71.1569,8.9544,108.86l2.117-.0732c.69,15.624.9683,31.2848.5867,46.757-.021.8733-.0169,1.6785.0006,2.45-.9072.0362-1.5907.245-1.9018.8227-1.0876,2.02-1.8537,10.2-1.254,12.6357s3.2305,2.466,5.3093,2.1466,2.9764.2043,5.6715-4.3921a49.136,49.136,0,0,0,30.7688,7.4621c16.61-1.4667,17.068-3.2458,9.1512-8.3713s-26.4557-10.6614-29.003-11.04a18.97,18.97,0,0,0-5.8677.1834c-.0293-.7483-.07-1.5279-.1349-2.3791-1.08-14.2377-1.8121-30.0668-2.2721-46.658l2.1616-.0748c-.2869-36.1262-1.0582-63.2739-.1563-104.7237,1.1-54.2337,1.3263-81.75-.9488-109.9774a24.4181,24.4181,0,0,0-.6312-3.7239,7.0848,7.0848,0,0,0-.0907-1.9049c-.4482-2.232-1.214-5.1538-2.1261-8.2708l.0014-.0011c-.9678-4.6277-5.3273-18.5063-6.7908-23.0809s-4.5449-19.7257-4.776-27.2636,1.934-21.1729,4.09-27.9023a49.5672,49.5672,0,0,1,5.2639-11.9553c1.2373-2.0509,6.1446-11.2879.2784-24.7663a38.4667,38.4667,0,0,0-3.5749-5.6277c-.9608-2.0848-2-4.2984-3.0679-6.7644-1.3982-3.23-2.6481-6.1012-3.8247-8.6587.958-.8239,3.0354-2.7443,6.0606-5.6007,3.18-3.0188,7.4049-7.06,12.2634-12.059a205.6074,205.6074,0,0,0,15.6929-18.0379c2.6959-3.5088,5.3081-7.3271,7.8168-11.3575a112.51,112.51,0,0,0,6.8168-12.9135,98.15,98.15,0,0,0,5.0485-14.1811c1.3048-4.8,2.4393-9.6044,3.5512-14.4168,2.1763-9.6241,4.082-19.2363,5.7153-28.47,3.3111-18.4642,5.299-35.4234,6.7138-47.867.0191-.1758.0274-.34.0413-.51C519.7253,34.8862,527.68,21.0637,527.6666,14.7393Z" transform="translate(-299.4701 32.2032)"/></g></g></svg>