<svg xmlns="http://www.w3.org/2000/svg" viewBox="0 0 418.461 662.3569"><defs><style>.cls-1{isolation:isolate;}.cls-2{fill:#fff;stroke:#231f20;stroke-miterlimit:10;opacity:0.4;mix-blend-mode:overlay;}</style></defs><g class="cls-1"><g id="Layer_1" data-name="Layer 1"><path class="cls-2" d="M597.6437,518.9749c-2.5395-.3689-5.5739-.376-8.8194-.6463l-2.4174-.1286c-.8241-.0766-1.6424-.1527-2.45-.2276-1.6253-.1575-3.1969-.2392-4.7453-.4879-6.1087-.6794-11.1037-1.8889-12.2957-1.964a13.2758,13.2758,0,0,0-1.8349.0134,15.59,15.59,0,0,0-2.0331.1786c-.5316.078-1.1027.1962-1.6989.3272-.0736-.9347-.1851-1.9544-.339-3.0788-1.8-13.0758-3.3841-27.6442-4.9674-42.9387l1.9876-.2195c-1.1729-13.979-2.4522-26.5114-4.0933-39.3156-.8348-6.4077-1.7547-12.8776-2.9891-19.7126-.3323-1.7169-.642-3.4432-1.0321-5.2191-.1853-.8844-.3681-1.773-.5907-2.6835-.2124-.88-.4248-1.8746-.715-2.9175a64.3784,64.3784,0,0,0-4.4443-12.42c-2.88-5.7739-8.1328-11.2209-14.0109-16.2367a161.157,161.157,0,0,0-15.3419-11.5065c-4.8825-3.2706-9.527-6.1185-13.9457-8.7154-8.8445-5.1553-16.7822-9.306-24.1-12.88A345.1726,345.1726,0,0,0,439.54,322.5022a7.7668,7.7668,0,0,0-.2526-2.5679c-.6535-2.1808-1.6872-5.0188-2.8848-8.0377l.0014-.0013c-1.3931-4.5179-7.0221-17.9318-8.9041-22.3507s-6.3564-19.2188-7.2862-26.7027-.04-21.261,1.4823-28.1615a49.5693,49.5693,0,0,1,4.1312-12.3922c1.0415-2.157,5.07-11.81-2.0218-24.6853a38.4617,38.4617,0,0,0-4.082-5.2717c-1.15-1.9865-2.3908-4.094-3.6825-6.45-1.1919-2.174-2.29-4.1657-3.33-6.0131,4.9506-2.2068,12.9018-6.0238,22.5069-11.3606,7.1178-3.9329,15.1583-8.6616,23.6921-13.98,4.2674-2.6579,8.6636-5.4569,13.14-8.3562l6.7713-4.41,3.422-2.2362,3.7658-2.416q1.7758-1.1324,3.5614-2.2707c.5923-.37,1.1774-.7507,1.74-1.1643l.8-.6871.7381-.7594a25.7677,25.7677,0,0,0,4.2842-7.307,61.7772,61.7772,0,0,0,2.5827-8.0889l.4917-2.0546.4227-1.9652q.3948-1.95.7328-3.8939a276.8519,276.8519,0,0,0,3.1169-30.4126c.99-18.2908,1.0466-34.9767,1.2249-47.8315C510.15,28.1916,522.43,15.4066,524.8829,9.2921c0,0,3.6841-10.0829,5.7473-18.12a4.2651,4.2651,0,0,0,.0885-.5016,3.4066,3.4066,0,0,0,.0723-2.5712,2.428,2.428,0,0,0-.17-.243c-.0038-.0074-.0037-.019-.0075-.0263-.009-.0114-.0218-.0174-.0309-.0286a2.2335,2.2335,0,0,0-.45-.4182c-.0275-.02-.0531-.0407-.0813-.0588a2.2435,2.2435,0,0,0-.5542-.2549c-.03-.0092-.0591-.0191-.09-.0272a2.4831,2.4831,0,0,0-.6246-.0812c-.0316,0-.0626,0-.0945.0009a2.923,2.923,0,0,0-.6667.0983c-.03.008-.06.0174-.09.0265a3.4717,3.4717,0,0,0-.685.2868c-.0241.0132-.0474.0283-.0714.0422a4.1437,4.1437,0,0,0-.6806.4911c-.0141.0126-.0274.0268-.0415.04a4.9728,4.9728,0,0,0-.6492.7177l-.007.01a6.0311,6.0311,0,0,0-.5781.9571c-.0889.1849-.1753.3568-.2616.5285-.0339.0675-.0687.1388-.102.2043-.0879.172-.1732.3343-.2571.4926-.9725,1.8288-1.7017,2.71-2.1573,2.4438-.53-.3083-.1248-2.1811,1.4778-7.706a8.4605,8.4605,0,0,0,.3246-1.842c.0136-.0853.0235-.1641.0283-.2343,0-.01-.0016-.0184-.0014-.0285l.0022-.0189-.0031.0007c0-.0045-.0007-.0084-.0007-.013.0036-.1743-.0127-.33-.0238-.4915-.0081-.1085-.01-.2221-.0247-.3248a4.2037,4.2037,0,0,0-.1155-.5477c-.0148-.0537-.0271-.11-.0437-.1613a3.446,3.446,0,0,0-.2062-.5077c-.0162-.0323-.0322-.0644-.0492-.0957a3.026,3.026,0,0,0-.2892-.4427c-.0151-.0191-.031-.0367-.0465-.0553a2.8317,2.8317,0,0,0-.3653-.37c-.0092-.0077-.0192-.0138-.0285-.0213a2.9931,2.9931,0,0,0-1.832-.6461c-.0761-.0019-.1515-.009-.228-.0057-.0982.0046-.1952.02-.2933.0333-.1047.0134-.2086.0266-.3125.0494-.0856.0191-.169.0449-.2535.07a3.5826,3.5826,0,0,0-.3392.1178c-.0753.031-.1486.065-.2222.1011a3.6414,3.6414,0,0,0-.3412.1919c-.0641.0405-.1272.0805-.189.1253a3.6131,3.6131,0,0,0-.3342.2783c-.0484.0449-.0984.0865-.1447.1344a3.583,3.583,0,0,0-.34.414c-.0223.0313-.048.0583-.0694.09a3.6449,3.6449,0,0,0-.3341.6137c-.3886.9364-.8482,2.2-1.3167,3.3936-.2017.4941-.392.9628-.5951,1.4568l-.01.0245c-.5089,1.1721-.9947,2.0643-1.3759,2.1608-.4422.1136.0509-2.9812.6553-5.8921.0194-.0932.0386-.1867.0582-.2794.0236-.112.0475-.2223.0713-.3332.0473-.2192.0946-.4375.1422-.65l.0184-.0831c.064-.2849.1281-.5631.1913-.8294,1.6811-7.1715-5.492-7.1828-6.5057-2.9215-.4131,1.7332-.7322,3.3946-1.0093,4.8532l-.0382.22c-.59,3.0967-.9888,5.173-1.6491,4.7432-.5259-.3422-.7048-2.035-.5835-5.3464l.0061-.1307a28.9044,28.9044,0,0,0-.27-6.9991,3.3655,3.3655,0,0,0-1.2309-1.9353,2.99,2.99,0,0,0-.3945-.2436c-.0141-.0075-.0268-.0181-.0411-.0253a3.2657,3.2657,0,0,0-1.2821-.3326c-.0559-.0034-.1114-.0132-.1673-.014-.0633-.0009-.1259.0079-.189.01-.1021.0041-.2045.0045-.3055.0171-.04.0049-.0779.0163-.1175.0226a3.6547,3.6547,0,0,0-.3654.0708l-.0136.0046a3.5481,3.5481,0,0,0-.4466.1514l-.0134.0067a3.3308,3.3308,0,0,0-.413.2081,2.613,2.613,0,0,0-1.169,1.3871c-.007.0205-.0131.0517-.02.0733-.0326.1039-.0641.2211-.0948.35-.0161.0676-.0322.1363-.0479.21-.0209.1-.0412.2079-.0612.3182l-.0028.008c-.5878,2.3889-1.4511,13.2036-1.6859,15.2782A85.472,85.472,0,0,1,496.47-.3425c-.6239,1.2643-1.5238,1.9032-2.9067,1.4543a6.05,6.05,0,0,0-1.502-.301,7.1008,7.1008,0,0,1-3.65-3.377c-1.7962-4.09-7.0625-9.2348-10.772-7.4787-2.9678,1.4059.5225,4.4637,3.1658,6.9427,2.4184,2.2686,5.5329,9.83,6.3554,13.9475a32.6614,32.6614,0,0,0,2.4653,6.9866,31.5954,31.5954,0,0,0,6.0619,10.054c.0022.1007-.0011.1964.0029.2987A353.4152,353.4152,0,0,1,493.72,77.68,220.083,220.083,0,0,1,488.9,106.295q-.44,1.7355-.9236,3.4277l-.4886,1.6242-.4377,1.3108a41.1591,41.1591,0,0,1-2.1,5.0419,15.5069,15.5069,0,0,1-3.1043,4.3606,7.5921,7.5921,0,0,1-2.2839,1.3959c-.8092.382-1.602.7774-2.3858,1.1715l-1.2547.6336-1.3479.7026L471.2,127.7644l-6.6131,3.5045c-4.3568,2.2885-8.6156,4.49-12.7558,6.5619-8.278,4.1477-16.0659,7.8218-23.031,10.8942-6.9662,3.0683-13.1,5.5541-18.05,7.4338-4.9519,1.8648-8.7126,3.1911-10.9616,3.9912a23.3847,23.3847,0,0,0-3.0365,1.3255c-.1522.0769-.2937.1615-.4431.24a22.3428,22.3428,0,0,0-3.0068-.8468c-1.9855-.41-3.66-.6626-5.1262-.85l-.0911-.1029a1.9712,1.9712,0,0,0-1.2642-.0619l.0016.0017c-4.6473-.5246-6.9325-.5269-10.1406-3.5212-2.9019-2.7085-5.1881-7.1813-7.0006-11.738-.0766-.1924-.1472-.3848-.222-.5774,6.6639.0106,12.8484-.9348,17.5311-2.921,3.7616-1.5959,8.268-6.3894,11.2661-12.9073a71.6177,71.6177,0,0,0,20.241-18.4826c-.6855-.6956-5.6223-5.0807-6.3112-6.08a21.6079,21.6079,0,0,0,6.3106,3.9834,21.61,21.61,0,0,0,3.2759-6.1507,14.38,14.38,0,0,1-3.1706-2.4725,9.09,9.09,0,0,0,3.532,1.5793c1.2755-2.23,1.9847-5.1789,3.1491-8.0866-6.9679-3.8993-11.524-8.0987-17.8824-14.6867,5.8705,3.6325,13.7843,6.7315,19.5443,6.6823-11.4022-5.3667-23.13-14.1668-27.1588-22.8144-3.6764-7.8905-3.9108-19.7862-16.0655-26.12-6.5322-10.7266-15.3571-11.4929-17.0407-11.4355-2.1259-2.2245-11.0862-10.7486-36.1077-5.3625S291.2137,43.874,287.2357,55.5935c-2.8277,8.3306-1.3279,20.2408.966,28.8981-.5794,2.97-1.0347,5.7073-1.4176,7.993-1.5544,9.2782-10.0154,21.8083-16.2626,31.2682,4.1962-2.9775,9.0323-10.901,14.59-21.0166-3.8929,11.4976-13.2027,24.7605-17.9107,30.5587,5.1321-3.3241,12.8528-12.8468,19.24-24.9759-1.8391,7.7195-11.7683,25.7212-13.92,28.1689,2.3939,3.1106,20.42,11.9522,24.0008,12.8335a89.0165,89.0165,0,0,1,5.6256-13.1066,44.9114,44.9114,0,0,0,.4311,14.1719c5.8172,1.6887,12.2624,1.4586,17.7676.6339.4112,1.2914.828,2.483,1.25,3.52,7.3321.2107,11.4206-2.1312,11.4206-2.1312,2.6346.4865,10.831,2.2406,15.5663-1.9409a73.7109,73.7109,0,0,1-17.0551-17.6547c4.3909,3.54,10.3409,6.2957,16.8669,8.188a96.4047,96.4047,0,0,1,2.2136,13.9582c.0716,1.1183.0993,2.162.0754,3.1145-.12,4.7847-2.88,8.4175-6.48,11.6927a2.2015,2.2015,0,0,0-.7253.6468c-3.9008,3.4031-8.5978,6.4691-12.0108,10.116-4.082,1.857-7.6028,5.7121-9.3751,11.98-.1841.6545-.4662,1.8649-.8281,3.5643-.1765.8484-.3787,1.8208-.6052,2.91q-.1645.8145-.3466,1.7153l-.1561.8149q-.0651.3635-.1329.7429c-.7246,4.05-1.66,9.5544-2.9224,16.3687-1.28,6.8035-2.84,14.95-5.2062,24.0278a131.8985,131.8985,0,0,1-4.4554,14.1026,60.8443,60.8443,0,0,1-3.2675,7.1417,27.9669,27.9669,0,0,1-4.6776,6.4786,13.68,13.68,0,0,1-2.7143,2.11,6.14,6.14,0,0,1-.75.4033,4.7861,4.7861,0,0,1-.7771.33,3.4892,3.4892,0,0,1-1.5918-.0691,17.1034,17.1034,0,0,1-5.4168-2.9824,72.779,72.779,0,0,1-9.2115-8.6258,183.5508,183.5508,0,0,1-15.9547-20.438c-4.8582-7.1186-9.245-14.3465-13.0048-21.1421q-1.4106-2.5477-2.6989-5.0072-.6387-1.2342-1.26-2.4353L244.87,210.048c-1.6149-3.2567-3.0618-6.343-4.3132-9.2257a14.3324,14.3324,0,0,0-1.0405-1.9737,32.5441,32.5441,0,0,0-.5413-11.5842A33.1418,33.1418,0,0,0,237.16,179.97c-1.6037-3.9479-3.1891-12.0929-2.408-15.3656.8541-3.5766,2.1026-8.1167-1.1968-7.65-4.1231.5847-5.71,7.8851-4.9469,12.3529a7.205,7.205,0,0,1-1.2059,4.9,6.1423,6.1423,0,0,0-1.1039,1.094c-.9208,1.1529-2.04,1.1144-3.275.3919a86.7251,86.7251,0,0,1-5.79-6.7509c-1.3579-1.6263-8.1307-10.3051-9.9631-12l-.007-.0053c-.0792-.0829-.1572-.1637-.2311-.2367-.0537-.0532-.1049-.1015-.1557-.1491-.0987-.0928-.1919-.1752-.2782-.2455-.0174-.0141-.0393-.0364-.056-.05a2.5292,2.5292,0,0,0-1.29-.5067c-.0724-.008-.1466-.0042-.22-.0071-.0851-.0031-.1694-.0119-.2553-.0081a3.5785,3.5785,0,0,0-1.4017.3642l-.0179.0074c-.1083.0536-.2111.1186-.3141.1829-.04.0246-.0818.0441-.12.07-.0518.0352-.0978.0785-.1478.1164-.0845.0639-.171.1251-.2495.1966l-.0078.0081a3.3549,3.3549,0,0,0-.34.3605l-.0075.0109a3.1685,3.1685,0,0,0-.2814.4108c-.0132.0231-.0213.05-.0339.073a3.0254,3.0254,0,0,0-.1846.3978,3.414,3.414,0,0,0,.0384,2.3272,29.3051,29.3051,0,0,0,3.681,6.08l.0745.1023c1.9555,2.7406,2.75,4.2759,2.496,4.86-.3192.7331-1.8171-.8038-4.0477-3.0978l-.1546-.1643c-.6055-.6236-1.2731-1.3014-1.9722-1.9969-.4352-.4329-.8887-.8746-1.3554-1.3184-.0825-.0783-.1551-.1537-.2385-.232-3.2393-3.0434-9.3093.9735-3.8786,6.1092.2006.1887.4086.3871.62.591l.0772.0747c.1544.1491.3113.3025.4688.4569.0854.0838.1706.1672.2565.2522.0636.0628.1271.1265.1907.19,2.1413,2.1306,4.2948,4.4835,3.8563,4.6343-.3768.1312-1.2863-.3525-2.3715-1.0607l-.0232-.0161-.0148-.0085c-.0509-.0333-.1041-.07-.1557-.1038-.3692-.2489-.7538-.5142-1.1475-.7893-1.0639-.75-2.159-1.563-3.0112-2.1391-.0307-.0206-.0636-.0328-.0946-.0523a3.6959,3.6959,0,0,0-.3778-.2089c-.0481-.023-.0954-.0481-.1439-.0688a3.6237,3.6237,0,0,0-.46-.1591c-.0486-.0134-.0969-.0261-.1457-.0375a3.6589,3.6589,0,0,0-.4758-.0795c-.0409-.0039-.0813-.0053-.1222-.0078a3.6882,3.6882,0,0,0-.5019-.0014c-.0168.0013-.033.0043-.05.0058a3.7152,3.7152,0,0,0-.4963.0779c-.02.0044-.04.0075-.059.0123a3.6777,3.6777,0,0,0-.5.1615l-.0477.0191c-1.7488.7275-2.8155,2.77-1.154,5.1685l-.001,0,.0062.0068.007.01.0139.0234.0163.0179a8.5169,8.5169,0,0,0,1.4425,1.5435c4.4441,3.7851,5.8332,5.1454,5.5569,5.7025-.2352.4757-1.328.1462-3.1429-.8381-.3887-.2116-.8074-.4468-1.26-.7182a6.1321,6.1321,0,0,0-.9968-.4766c-.0129-.0048-.0262-.0113-.0391-.016-.1353-.0493-.2684-.088-.4012-.1248-.0381-.0106-.0767-.0243-.1145-.0339-.1182-.03-.2338-.0508-.3494-.0711-.0511-.009-.1028-.0207-.1533-.0279-.1051-.0149-.2075-.0225-.31-.03-.0584-.0042-.1174-.01-.1749-.0119-.094-.0028-.1852,0-.2764.0039-.0626.0024-.1254.0038-.1866.009-.0843.0073-.1656.0192-.2471.0319-.0638.01-.1275.0195-.19.0325-.0758.0159-.1489.0355-.2217.056-.0623.0176-.124.0357-.1842.0566-.068.0236-.1335.05-.1983.0774-.06.0253-.1179.0519-.1747.0805-.06.03-.1176.0622-.1741.0958s-.1094.068-.1618.1045-.1016.0728-.15.1117c-.0509.041-.0988.0841-.1457.1284-.0428.0405-.0847.0812-.1242.1242-.0454.05-.0871.1014-.1279.1543-.0333.0431-.0665.0859-.0966.1312-.04.06-.0749.1231-.1091.1867-.0226.0423-.0463.0836-.0661.1273a2.2458,2.2458,0,0,0-.089.2353c-.0113.0348-.0248.0685-.0344.104a2.3221,2.3221,0,0,0-.062.3178c-.0018.0147-.0054.0287-.007.0434-.0025.0227-.0089.044-.0108.0669.0011.0125.0064.0259.008.0385a2.4384,2.4384,0,0,0-.0075.2884,3.4553,3.4553,0,0,0,1.4964,2.1369,4.3193,4.3193,0,0,0,.3562.3766c6.2377,5.6554,14.9912,12.1386,14.9912,12.1386,4.5174,3.1323,17.18,6.3718,24.4052,7.2134q2.1943,4.2235,4.7125,9.0709l2.9283,5.6186q1.6807,3.1624,3.4487,6.4894c4.7579,8.8342,10.18,18.4647,16.3665,28.1218,6.1745,9.6349,13.164,19.263,20.8031,26.94a78.4909,78.4909,0,0,0,12.0262,10.1406,25.2712,25.2712,0,0,0,6.9754,3.4342,6.65,6.65,0,0,0,2.0725.24,9.3961,9.3961,0,0,0,1.0366-.1807,9.6651,9.6651,0,0,0,1.01-.2505,19.6036,19.6036,0,0,0,3.7511-1.4785,37.1772,37.1772,0,0,0,3.5307-2.1825c1.09-.8,2.1242-1.6426,3.1065-2.5179a58.9187,58.9187,0,0,0,5.4051-5.6234,96.1,96.1,0,0,0,9.07-12.85c5.5323-9.1609,9.9915-19.8983,13.6166-30.0973,1.5819-4.4656,3.0213-8.787,4.3474-12.8979,2.3473,3.41,4.8345,6.8309,7.2837,10.2913a4.0491,4.0491,0,0,1-.5367-.0444c0,.0025,6.2587,9.8865,8.1565,13.0532,2.3034,3.8412,11.1742,27.079,11.2022,40.67.025,13.3767-1.7493,23.502-2.185,29.5581l.0027-.0006c-1.2069,7.5072-1.745,14.9591,1.3227,22.1109a23.3784,23.3784,0,0,0,1.3687,5.9919c4.2849,11.31,10.1242,24.5376,17.96,41.2946,3.9105,8.3192,8.2645,17.5814,13.1531,27.9813,2.4035,5.1711,4.9079,10.6153,7.4426,16.3559,2.5274,5.7385,5.0931,11.78,7.4418,18.1045,1.6718,4.4961,3.1776,8.9114,4.3168,13.1629q.3744,1.5.7473,2.993c.1809.9625.4408,1.9187.5838,2.8909.1447.9712.3427,1.9426.4086,2.9242.0448.49.1086.9806.144,1.472l.0452,1.4761a11.125,11.125,0,0,1-.017,1.4758c-.0309.49-.0288.9864-.0811,1.4746-.1332.9718-.2493,1.9512-.4649,2.91l-.5925,2.9507c-.2456,1.1453-.4716,2.2983-.7531,3.4276-.5488,2.2651-1.0551,4.5449-1.6429,6.7963-.607,2.2445-1.1909,4.4978-1.8256,6.7377a243.3135,243.3135,0,0,1-9.3583,26.5826c-1.7806,4.4193-3.8227,8.7909-5.86,13.21-2.1432,4.3833-4.29,8.8141-6.6847,13.2173l2.0088,1.0486A443.2761,443.2761,0,0,1,371.37,602.1213c-.6215.9364-1.1671,1.8142-1.6541,2.65a2.1382,2.1382,0,0,0-2.1924-.2166c-1.9245,1.3126-7.1948,8.2627-8.01,10.8048a3.0209,3.0209,0,0,0,.8311,3.1571,9.589,9.589,0,0,0,3.174,1.7631,7.1252,7.1252,0,0,0,2.8891.8157c1.0657-.0774,2.4745-.6248,4.7965-2.2488a28.5,28.5,0,0,0,2.9241,3.688c.7248.784,1.5749,1.6464,2.5641,2.5594a34.7337,34.7337,0,0,0,3.4581,2.6526c.6523.4466,1.3406.9035,2.0694,1.3466q1.1049.6059,2.3243,1.2,1.2194.592,2.5528,1.16c.8888.3761,1.8215.6527,2.7868.96q1.4491.4443,3.0053.8339c1.0353.2276,2.1024.3937,3.2025.5548,1.0973.1414,2.2364.3179,3.3854.3516q1.7265.0692,3.5348.04c2.4127-.0259,4.4782-.2612,6.2954-.41,1.8051-.188,3.3081-.4665,4.573-.7151,2.5307-.4983,3.9882-1.1821,4.629-1.8639,1.2657-1.4284-.9038-3.09-5.2015-5.7394-4.3026-2.5788-11.1731-5.5915-16.69-8.55-5.5656-2.94-9.8305-5.7049-10.8925-6.248a12.306,12.306,0,0,0-2.9-1.0136c.1315-.243.2587-.4681.393-.7225,7.1373-13.6105,15.41-28.5393,23.8306-44.4083l2.0569,1.0736c4.7968-8.5484,9.059-16.7608,13.0454-24.92,4.0111-8.1434,7.5962-16.3409,11.0324-24.8255,1.7253-4.2437,3.328-8.5915,4.9422-13.04l2.341-6.7787,1.16-3.6039q.6732-2.1026,1.2968-4.2218a52.4708,52.4708,0,0,0,1.4973-18.218c-.1439-1.5853-.244-3.2066-.4816-4.8133-.2085-1.6031-.3866-3.0322-.6484-4.5124q-.1814-1.1065-.3648-2.2251l-.4192-2.1923-.4281-2.2155-.4767-2.188c-1.68-7.6746-3.6016-14.5267-5.488-20.8922-1.8949-6.3582-3.7735-12.2158-5.5743-17.7173-3.621-10.9755-6.94-20.5084-10.0169-29.1615-3.5133-9.8506-6.7224-18.5586-9.89-26.7795a41.8079,41.8079,0,0,0,12.7389-8.16,19.0941,19.0941,0,0,0,2.1208.9552c9.5271,3.61,21.0617,7.4635,35.685,12.8005,7.306,2.6759,15.3651,5.7579,24.2154,9.5075,4.41,1.8922,9.0172,3.9541,13.757,6.2769,4.7285,2.3266,9.6263,4.9025,14.4231,7.8757l2.13,1.35,2.0027,1.3345,1.76,1.2332,1.7165,1.295a26.9158,26.9158,0,0,1,5.9536,6.1295,40.3339,40.3339,0,0,1,3.4925,7.1844c.2511.6239.49,1.2359.7215,1.9224.2455.7256.5133,1.429.742,2.1733.4767,1.4692.9424,2.95,1.3742,4.46,1.7645,6.0127,3.212,12.2447,4.5251,18.5381a394.5822,394.5822,0,0,1,5.96,39.1906l1.9384-.214c1.7169,14.3031,2.8893,28.7077,3.4069,42.9724.0245.686.0635,1.3238.11,1.94-.1419-.0076-.2842-.0159-.4153-.0123a1.7079,1.7079,0,0,0-1.5906.638c-1.27,1.9689-3.2733,10.4029-2.9971,13.0348.2858,2.6248,3.1855,3.1159,5.5258,2.9082a7.5314,7.5314,0,0,0,2.9244-.3888c.9314-.4136,2.0033-1.4576,3.5274-3.8561.8036.5028,2.1418,1.3656,4.0393,2.3559a39.8353,39.8353,0,0,0,7.3965,2.6347c1.5138.3293,3.1691.6144,4.9561.8248a46.5821,46.5821,0,0,0,5.7119.0708,43.2373,43.2373,0,0,0,6.3256-.9369,33.742,33.742,0,0,0,3.31-.9718c1.1125-.3873,2.26-.7611,3.38-1.2753l3.1319-1.5013a28.8,28.8,0,0,0,2.6741-1.4227c1.6137-.9636,2.9667-1.8076,4.0495-2.587,2.1118-1.6516,3.2417-2.8752,3.5239-3.782C605.4534,519.966,602.5934,519.4391,597.6437,518.9749Z" transform="translate(-186.9912 27.6547)"/></g></g></svg>