<svg xmlns="http://www.w3.org/2000/svg" viewBox="0 0 283.7575 617.1058"><defs><style>.cls-1{isolation:isolate;}.cls-2{fill:#fff;stroke:#231f20;stroke-miterlimit:10;opacity:0.4;mix-blend-mode:overlay;}</style></defs><g class="cls-1"><g id="Layer_1" data-name="Layer 1"><path class="cls-2" d="M531.2039,126.1786c.3493-2.4615.2782-7.2869-3.444-8.1232a124.7416,124.7416,0,0,0-15.0681-2.1731c-3.3231-.1524-3.3726.5016-7.0725,3.178s-8.0971,5.1553-6.872,11.8372,1.9209,8.7981,4.8364,7.5493c.5959-.2551,1.1888-.4989,1.7747-.7368a9.0672,9.0672,0,0,0,3.45.8128c-2.2672.403-4.4523,1.472-4.4135,4.528.0309,2.3552,1.938,3.4343,5.709,3.5485l.0222.0006c-1.8661.1772-3.5864.7164-3.8015,3.4356-.1753,2.2236,2.5443,3.8983,5.8319,3.9972.0758.0023.148.0037.2235.0059q-1.0929,2.91-2.2971,5.9482c-3.125,7.8-6.7677,16.2238-11.1142,24.6116-2.17,4.1913-4.5042,8.3823-7.041,12.4089l-.9151,1.4322c-.2618.4166-.5282.7807-.7942,1.1714-.5268.7719-1.062,1.536-1.6239,2.2791-1.0935,1.5061-2.2782,2.9359-3.49,4.32a26.1475,26.1475,0,0,1-8.5116,6.6875,10.0521,10.0521,0,0,1-5.258.89,14.8622,14.8622,0,0,1-5.0464-1.8558,53.2679,53.2679,0,0,1-8.4784-5.9287l-1.8684-1.6-.8917-.8056-.4335-.3932-.6111-.5343c-.8417-.7161-1.6511-1.4979-2.4672-2.2376-.8159-.7417-1.62-1.4889-2.4027-2.258a222.0349,222.0349,0,0,1-16.6-17.8141,259.3319,259.3319,0,0,1-17.9887-24.3109c-.4082-.582-.826-1.1351-1.25-1.6733a18.9419,18.9419,0,0,0-8.9408-7.2552c-1.8721-.7777-3.4681-1.3426-4.8729-1.8034l-.07-.1183a1.9731,1.9731,0,0,0-1.23-.3l.0012.0018c-4.4642-1.3938-6.7077-1.8282-9.2918-5.375-2.3374-3.2082-3.7367-8.0326-4.6549-12.85-.07-.3652-.1311-.7289-.1954-1.0932,6.2464.2183,12.0608-.4378,16.5759-2.0965,3.8357-1.4093,8.5724-5.9764,11.887-12.34A71.6169,71.6169,0,0,0,433.6279,93.68c-.6505-.7285-5.3659-5.35-6.005-6.3823a21.6044,21.6044,0,0,0,6.1074,4.2885,21.6092,21.6092,0,0,0,3.5738-5.9824,14.3774,14.3774,0,0,1-3.0452-2.6252,9.09,9.09,0,0,0,3.45,1.7508c1.3836-2.1642,2.2367-5.0752,3.5426-7.9223-6.7682-4.2366-11.1125-8.6549-17.14-15.5469,5.6852,3.9164,13.4374,7.4,19.1927,7.6337-11.1249-5.92-22.4064-15.2853-26.0058-24.12-3.2846-8.0615-2.9347-19.9543-14.7637-26.877C396.5372,6.8626,387.7606,5.6638,386.0761,5.6385c-2.0141-2.3262-10.545-11.28-35.8009-7.129S309.73,21.675,305.1815,33.1851c-3.2333,8.1817-2.32,20.1511-.454,28.9107-.7246,2.9381-1.3137,5.65-1.8084,7.9137-2.008,9.1906-11.0741,21.29-17.778,30.432,4.337-2.7678,9.5564-10.4444,15.6042-20.2749-4.4527,11.2925-14.4024,24.0824-19.3895,29.6425,5.2891-3.0682,13.4681-12.2,20.4436-24.001-2.2159,7.62-13.0169,25.1123-15.2863,27.4514,2.2383,3.2244,19.8089,12.9405,23.3418,13.9964a89.0347,89.0347,0,0,1,6.2623-12.8145,44.9037,44.9037,0,0,0-.2651,14.1758c5.7272,1.9723,12.1759,2.0591,17.715,1.5056.3473,1.31.705,2.5207,1.0759,3.5772,7.3129.57,11.5114-1.5678,11.5114-1.5678,2.6076.6151,10.7078,2.7695,15.643-1.1743a73.7149,73.7149,0,0,1-16.1667-18.4689c4.6444,4.1367,11.23,7.4129,18.4409,9.66a85.6989,85.6989,0,0,1-.522,11.0965c-.141,1.1117-.3113,2.1419-.5149,3.0726-1.0227,4.6757-4.42,7.7212-8.5739,10.2566a2.2016,2.2016,0,0,0-.8346.498c-3.0335,1.7657-6.3976,3.31-9.5107,5.0351-3.5412-1.3182-16.1925-5.1639-33.69-7.2332-2.3066-.2674-4.6936-.5258-7.1623-.7248-2.622-.2284-5.5776-.4375-8.4491-.5573a114.7041,114.7041,0,0,0-17.6914.5287,56.2357,56.2357,0,0,0-8.7752,1.6916,30.6144,30.6144,0,0,0-4.2273,1.5418,12.6515,12.6515,0,0,0-3.7977,2.5413,5.6157,5.6157,0,0,0-1.2714,1.9224c-.2714.7172-.405,1.4612-.6383,2.1957q-.678,2.2293-1.3588,4.4671c-.9178,3.0058-1.7438,6.0985-2.4211,9.2082-.9519,4.0365-1.7559,8.07-2.35,12.0791-.1582,1-.2978,2-.41,3-.1191.9985-.252,1.9909-.3314,2.9853-.1994,1.9575-.3052,3.8162-.41,5.7153-.1519,3.7794-.1211,7.5165.09,11.1748q.1116,1.37.2221,2.7266.0951,1.3568.28,2.6917.1659,1.3356.33,2.6553.2194,1.3125.4361,2.6084a98.4842,98.4842,0,0,0,5.2669,18.992c.5818,1.4095,1.0992,2.8117,1.683,4.1456q.8923,1.9928,1.7414,3.8887c1.2392,2.4688,2.3546,4.8365,3.55,6.9613.0426.0833.09.1541.1337.2346-.1046,4.6062,4.5908,20.3883,9.3435,24.8885,3.09,2.9255,9,6.4731,14.3331,9.8073,3.9022,2.4391,8.0736-1.3045,5.8053-4.6214,3.9277,3.2132,8.785-1.5158,5.9182-4.8021,4.6718,2.9589,9.2751-3.8266,4.1762-7.6628,5.7276,4.1808,9.7394-4.0911,5.2337-7.357-1.1917-.8637-2.2771-1.68-3.2838-2.4591-.2362-2.7342-2.2917-6.4652-2.8848-8.07-.8493-2.2991-1.9329-5.19-3.9273-6.4422s-9.56-.6906-17.1192-1.3046l-.0125,0a32.6765,32.6765,0,0,0-8.4348.3707c-.8763-1.4569-1.7055-3.0308-2.5816-4.6683l-1.5813-3.41c-.5175-1.1738-.962-2.4066-1.4612-3.6486a68.95,68.95,0,0,1-3.9247-16.6654,74.4776,74.4776,0,0,1-.4541-9.2693,88.0194,88.0194,0,0,1,.731-9.629q.1831-1.2162.3675-2.44c.0538-.4071.1425-.815.2146-1.2228l.2131-1.1165c.2716-1.3327.57-2.6526.92-3.9555.68-2.6092,1.4912-5.1565,2.3839-7.623.6385-1.7752,1.3231-3.5075,2.0047-5.2037.3388-.8487.6775-1.6885.9885-2.5264.1567-.4187.3046-.8371.4322-1.2582.06-.2114.15-.4144.23-.6193a2.9759,2.9759,0,0,1,.3783-.5524,5.375,5.375,0,0,1,2.344-1.4017,15.2254,15.2254,0,0,1,2.7182-.596,33.748,33.748,0,0,1,5.45-.1949,72.2036,72.2036,0,0,1,10.07,1.1684c1.5655.2862,3.0708.6007,4.5164.93l5.4755,1.2513a185.8828,185.8828,0,0,1,19.9225,5.9629c4.2274,1.5269,7.4749,2.8812,9.7067,3.8092,1.04,6.3763,3.5113,14.5649,8.0293,25.2292,1.9074,4.5025,4.0588,9.0579,6.1447,13.6586a4.032,4.032,0,0,1-.5186-.1452c0,.0026,4.2765,10.8917,5.5411,14.36,1.5357,4.2074,5.8525,28.7034,3.31,42.0549-2.5048,13.14-6.1615,22.7471-7.7347,28.6117l.0028,0a56.3586,56.3586,0,0,0-3.2506,12.2758,22.0688,22.0688,0,0,0-2.3187,5.0372c-3.38,10.7583-6.9369,23.7108-11.7928,40.3954-2.4015,8.3523-5.2118,17.6176-8.3532,28.1949q-1.1727,3.9945-2.41,8.21-.6126,2.125-1.2418,4.3081-.6071,2.2235-1.23,4.5067c-.8562,3.0063-1.6064,6.266-2.424,9.5321-.383,1.6626-.7251,3.3912-1.0936,5.1154-.1765.8688-.374,1.7269-.5353,2.619q-.2218,1.3515-.4466,2.7207-.3127,1.9443-.6241,3.8775-.2066,1.9787-.4121,3.9464c-.329,2.6-.3858,5.2591-.472,7.8811l-.0606,1.9623.0662,1.9669.1473,3.9086c.0121,1.3006.2265,2.5789.3444,3.86q.2139,1.9152.4269,3.8236a138.6208,138.6208,0,0,0,7.5418,28.3645c3.2613,8.9154,6.9164,17.4982,10.7593,26.0516q1.4291,3.2154,2.8659,6.4484,1.4644,3.2137,2.94,6.4521,2.9274,6.4825,5.917,13.1038l1.967-.9c6.8069,14.5234,13.5721,29.0383,19.7216,43.6262a41.462,41.462,0,0,0,2.174,4.4882c-.7314.4882-1.368,1-1.99,1.5066a42.3568,42.3568,0,0,0-2.9,3.21c-.7516.7811-1.604,1.6873-2.53,2.6912q-.69.7544-1.44,1.5749-.7728.7659-1.5968,1.583c-4.2627,4.4973-9.7422,9.2307-12.9109,13.0537-3.1933,3.709-4.7328,5.9508-3.1162,6.8812.8026.4527,2.3883.5976,4.9019.3517,1.2517-.1642,2.7362-.4238,4.4716-.78.8666-.1858,1.801-.3636,2.7911-.6243q1.49-.4317,3.1585-.9144a39.1888,39.1888,0,0,0,19.2378-12.61,40.8015,40.8015,0,0,0,2.4428-3.497,24.831,24.831,0,0,0,1.7069-3.0681c.8849-1.9215,1.3973-3.3951,1.7135-4.2669,2.6706.9164,4.0726.9414,5.0912.71a7.7192,7.7192,0,0,0,2.5362-1.5354c1.8374-1.4344,3.8222-3.6547,2.346-5.77-1.4983-2.12-8.4712-7.0551-10.6673-7.7812-.9026-.2864-1.6369.43-2.4884,1.4735-.38-.7762-.7954-1.5878-1.2772-2.4714-6.9581-12.7614-14.23-27.1814-21.1142-42.5284l2.0134-.9217c-7.11-16.8016-13.146-31.5789-17.767-46.9928a129.8234,129.8234,0,0,1-4.8086-23.6337,74.0055,74.0055,0,0,1,1.9745-25.233l.251-1.0906.3224-1.0966q.3186-1.09.6324-2.1634.31-1.07.6157-2.1245.3636-1.07.7214-2.124c.4876-1.408.93-2.7776,1.4263-4.1493q.7846-2.0717,1.5453-4.08c.4883-1.3289,1.0273-2.666,1.5686-3.9879q.8-1.9758,1.5755-3.8925,1.6289-3.8856,3.1619-7.5422c4.1994-9.838,7.99-18.7586,11.3027-26.9573,4.3709-10.91,7.9518-20.595,11.0162-29.9873a75.4061,75.4061,0,0,0,11.5471-.1382c5.9631-.4542,12.16-3.03,17.7785-6.5967,8.4972,5.4435,19.0365,10.9677,32.1108,17.8532,6.5651,3.4856,13.7652,7.3359,21.3413,12.0355a138.4809,138.4809,0,0,1,11.445,7.8542,82.0374,82.0374,0,0,1,10.9526,9.9424,54.3714,54.3714,0,0,1,6.9107,9.3927,28.5366,28.5366,0,0,1,3.0137,7.6787,53.2813,53.2813,0,0,1,1.2829,8.7111,118.3546,118.3546,0,0,1-.418,19.1289,270.3893,270.3893,0,0,1-7.2143,39.9572l1.7966.4384c-3.1123,13.31-6.8466,26.5267-11.1011,39.4032-.1207.364-.2273.7092-.3334,1.054-1.51-.3513-2.7043-.4511-3.2684.2982-1.38,1.833-3.3707,9.8043-3.1452,12.3021s2.8218,2.9249,4.9251,2.9226,2.9115.6508,6.2688-3.4866A49.1354,49.1354,0,0,0,503.16,534.54c16.641,1.0548,17.3625-.6348,10.3091-6.8956s-24.5454-14.5289-27.0067-15.2869a19.3619,19.3619,0,0,0-6.0828-.7006c2.6938-12.0838,6.0655-25.36,9.5718-39.3262l1.8513.4517c3.7723-13.9272,6.8359-26.4282,9.2515-39.72a168.3885,168.3885,0,0,0,2.5748-21.1531q.0505-1.44.1014-2.8993-.0038-1.4874-.0073-2.9957c-.0487-2.0231-.1406-4.1169-.4049-6.4059a47.7954,47.7954,0,0,0-3.4088-13.6133c-.7241-1.6226-1.4779-3.4793-2.4632-5.2544-.47-.8751-.9088-1.7821-1.4259-2.6571l-1.5888-2.6424a92.36,92.36,0,0,0-11.9193-15.0873,140.8012,140.8012,0,0,0-11.9972-11.072,257.9782,257.9782,0,0,0-21.2611-15.6478c-11.4715-7.6307-20.9722-13.2922-30.1355-18.7288a8.0711,8.0711,0,0,0,.3151-2.894c-.2293-2.265-.7078-5.2474-1.313-8.4382l.0016-.001c-.5138-4.7-3.5048-18.9361-4.5172-23.6312s-2.6079-20.0739-2.1059-27.5986,3.9811-20.885,6.78-27.3732a49.5656,49.5656,0,0,1,6.4-11.3875,22.8556,22.8556,0,0,0,3.8861-9.1817q2.36,2.055,4.8643,4.1286c1.8336,1.547,3.7777,3.0518,5.7388,4.591q1.4937,1.1313,3.0115,2.28l3.28,2.3757a106.03,106.03,0,0,0,14.7315,8.9166,42.0839,42.0839,0,0,0,8.0159,2.9753,18.4457,18.4457,0,0,0,2.1018.4256,9.347,9.347,0,0,0,1.0636.1568l1.0824.0323a15.33,15.33,0,0,0,4.3043-.5755,23.9516,23.9516,0,0,0,7.7217-4.04,41.7273,41.7273,0,0,0,6.3414-6.0323,89.133,89.133,0,0,0,9.8107-14.25l1.97-3.5838q.9172-1.7779,1.8267-3.5407l1.7355-3.5384,1.6514-3.5282c4.2966-9.388,7.8805-18.5332,11.0566-26.9067q1.7948-4.8261,3.4475-9.2707a5.6734,5.6734,0,0,0,2.7746-.3558c1.42-.8935,4.4345-3.45,5.09-5.32s2.0025-4.6618,1.6083-7.6657c-.2515-1.9172,1.4849-5.1612,1.86-6.7132C534.5444,131.2855,530.85,128.6726,531.2039,126.1786Z" transform="translate(-250.5359 3.0737)"/></g></g></svg>